<?xml version="1.0" encoding="UTF-8"?>
<svg width="32px" height="22px" viewBox="0 0 32 22" version="1.1" xmlns="http://www.w3.org/2000/svg" xmlns:xlink="http://www.w3.org/1999/xlink">
    <!-- Generator: Sketch 39.1 (31720) - http://www.bohemiancoding.com/sketch -->
    <title>email-envelope-outline</title>
    <desc>Created with Sketch.</desc>
    <defs></defs>
    <g id="Symbols" stroke="none" stroke-width="1" fill="none" fill-rule="evenodd">
        <g id="footer" transform="translate(-1026.000000, -234.000000)" fill="#4D576A">
            <g id="email-envelope-outline" transform="translate(1026.000000, 234.000000)">
                <g id="Capa_1">
                    <path d="M31.2892529,0.00901107011 L0.342779229,0.00901107011 C0.153757943,0.00901107011 0,0.162361624 0,0.351512915 L0,21.6018893 C0,21.7910406 0.153757943,21.9442288 0.342779229,21.9442288 L31.2892529,21.9442288 C31.4779484,21.9442288 31.6330908,21.7910406 31.6330908,21.6018893 L31.6330908,0.351512915 C31.6330908,0.162361624 31.4780298,0.00901107011 31.2892529,0.00901107011 L31.2892529,0.00901107011 Z M26.0555377,2.75105535 L15.8165454,10.2360886 L5.57739023,2.75105535 L26.0555377,2.75105535 L26.0555377,2.75105535 Z M28.8823058,19.2021033 L2.75094787,19.2021033 L2.75094787,4.0856679 L15.6131093,13.4880295 C15.7347801,13.5764354 15.8987994,13.5764354 16.020633,13.4880295 L28.882713,4.0856679 L28.882713,19.2021033 L28.8823058,19.2021033 L28.8823058,19.2021033 Z" id="Shape"></path>
                </g>
            </g>
        </g>
    </g>
</svg>