<?xml version="1.0" encoding="UTF-8"?>
<svg width="23px" height="24px" viewBox="0 0 23 24" version="1.1" xmlns="http://www.w3.org/2000/svg" xmlns:xlink="http://www.w3.org/1999/xlink">
    <!-- Generator: Sketch 39.1 (31720) - http://www.bohemiancoding.com/sketch -->
    <title>footer_skype</title>
    <desc>Created with Sketch.</desc>
    <defs>
        <polygon id="path-1" points="23 23.4959924 23 0.301907823 9.5833333e-05 0.301907823 9.5833333e-05 23.4959924"></polygon>
    </defs>
    <g id="Symbols" stroke="none" stroke-width="1" fill="none" fill-rule="evenodd">
        <g id="footer" transform="translate(-1135.000000, -232.000000)">
            <g id="Group">
                <g id="footer_skype" transform="translate(1135.000000, 232.000000)">
                    <g id="Group-3" transform="translate(0.000000, 0.020116)">
                        <mask id="mask-2" fill="white">
                            <use xlink:href="#path-1"></use>
                        </mask>
                        <g id="Clip-2"></g>
                        <path d="M14.9162347,19.1521246 C14.1706514,19.1521246 13.4742625,18.943879 12.8804153,18.5821046 C12.4699292,18.6606393 12.0476236,18.7031252 11.6138181,18.7031252 C7.8823875,18.7031252 4.85756806,15.6554012 4.85756806,11.8953935 C4.85756806,11.482121 4.89622083,11.0788262 4.96585972,10.6855092 C4.59434583,10.0797624 4.37967917,9.36619131 4.37967917,8.60112213 C4.37967917,6.40697967 6.14492917,4.62804093 8.32258194,4.62804093 C9.07231806,4.62804093 9.77285972,4.83886142 10.3699014,5.20514192 C10.7730403,5.12950403 11.1889569,5.08798366 11.6138181,5.08798366 C15.3455681,5.08798366 18.3703875,8.13570772 18.3703875,11.8953935 C18.3703875,12.3009413 18.3326931,12.6971551 18.2659292,13.0830693 C18.6412764,13.6917129 18.8591375,14.4094681 18.8591375,15.1787216 C18.8591375,17.3731859 17.0938875,19.1521246 14.9162347,19.1521246 L14.9162347,19.1521246 Z M9.5833333e-05,0.301875636 L9.5833333e-05,23.4959924 L23.0000958,23.4959924 L23.0000958,11.8899218 L23.0000958,0.301875636 L9.5833333e-05,0.301875636 Z" id="Fill-1" fill="#4D576A" mask="url(#mask-2)"></path>
                    </g>
                    <path d="M10.0678028,9.81496538 C10.0678028,9.11941868 10.7140389,8.79852092 11.4797472,8.79852092 C13.1759972,8.79852092 13.2772611,10.1226667 14.2627472,10.1226667 C14.9377333,10.1226667 15.3268167,9.66433333 15.2661222,9.07500154 C15.1418583,8.17314043 13.8653583,7.20722852 11.6864278,7.07880504 C9.4024,6.94330057 7.94892778,8.17314043 7.94892778,9.95561966 C7.94892778,13.2495692 13.4194139,12.1758331 13.4194139,13.9267697 C13.4194139,14.4118178 12.9878444,15.1073645 11.7218861,15.1073645 C9.91734444,15.1073645 9.92820556,13.4111446 8.79513611,13.4111446 C8.34503889,13.4111446 8.00674722,13.8305325 8.00323333,14.2872566 C7.99396944,15.8000144 9.92820556,16.6790232 11.8519,16.6790232 C14.0404139,16.6790232 15.5057056,15.4697826 15.5057056,13.6251837 C15.5057056,10.4248964 10.0678028,11.269144 10.0678028,9.81496538" id="Fill-4" fill="#4D576A"></path>
                </g>
            </g>
        </g>
    </g>
</svg>