<?xml version="1.0" encoding="UTF-8"?>
<svg width="29px" height="29px" viewBox="0 0 29 29" version="1.1" xmlns="http://www.w3.org/2000/svg" xmlns:xlink="http://www.w3.org/1999/xlink">
    <!-- Generator: Sketch 39.1 (31720) - http://www.bohemiancoding.com/sketch -->
    <title>instaLogo</title>
    <desc>Created with Sketch.</desc>
    <defs>
        <polygon id="path-1" points="28.9998389 0.379847748 0 0.379847748 0 29.5615497 28.9998389 29.5615497 28.9998389 0.379847748"></polygon>
    </defs>
    <g id="Page-1" stroke="none" stroke-width="1" fill="none" fill-rule="evenodd">
        <g id="07-UF_avtory" transform="translate(-960.000000, 0.000000)">
            <g id="header" transform="translate(0.000000, -15.000000)">
                <g id="instaLogo" transform="translate(960.000000, 14.000000)">
                    <g id="Group-3" transform="translate(0.000000, 0.025310)">
                        <mask id="mask-2" fill="white">
                            <use xlink:href="#path-1"></use>
                        </mask>
                        <g id="Clip-2"></g>
                        <path d="M9.73981111,23.2235997 C7.95872778,23.2235997 6.51436667,21.7718362 6.51436667,19.9811254 L6.51436667,12.6287632 L11.257075,12.6287632 C10.771325,13.314352 10.48495,14.1526087 10.48495,15.058088 C10.48495,17.3752403 12.3530333,19.2534214 14.657325,19.2534214 C16.9620194,19.2534214 18.8301028,17.3752403 18.8301028,15.058088 C18.8301028,14.1526087 18.5437278,13.314352 18.0579778,12.6287632 L22.8220333,12.6287632 L22.8220333,19.9811254 C22.8220333,21.7718362 21.378075,23.2235997 19.5965889,23.2235997 L9.73981111,23.2235997 Z M17.8722972,15.058088 C17.8722972,16.8402948 16.42995,18.2900335 14.657325,18.2900335 C12.8851028,18.2900335 11.4431583,16.8402948 11.4431583,15.058088 C11.4431583,14.0906506 11.8684917,13.2220223 12.5407278,12.6287632 C12.7763528,12.4210214 13.0425889,12.2472957 13.3313806,12.1148754 C13.7361722,11.9302159 14.1848667,11.8261425 14.657325,11.8261425 C15.1301861,11.8261425 15.5788806,11.9302159 15.9832694,12.1148754 C16.2724639,12.2472957 16.5382972,12.4210214 16.774325,12.6287632 C17.4465611,13.2220223 17.8722972,14.0906506 17.8722972,15.058088 L17.8722972,15.058088 Z M17.6302278,12.1148754 C16.8730056,11.3426263 15.8213528,10.8631596 14.657325,10.8631596 C13.4932972,10.8631596 12.4416444,11.3426263 11.684825,12.1148754 L6.51436667,12.1148754 L6.51436667,9.98562225 C6.51436667,8.89224387 7.05288056,7.92683126 7.87696389,7.33924162 L7.87696389,10.8307632 L8.538325,10.8307632 L8.538325,6.97640198 C8.68815833,6.91565874 8.84363056,6.86625423 9.00393611,6.82899838 L9.00393611,10.8307632 L9.66489444,10.8307632 L9.66489444,6.74476775 C9.69026944,6.74436279 9.71483889,6.74314793 9.73981111,6.74314793 L10.1216444,6.74314793 L10.1216444,10.8307632 L10.7830056,10.8307632 L10.7830056,6.74314793 L19.5965889,6.74314793 C21.3776722,6.74314793 22.8220333,8.19491144 22.8220333,9.98562225 L22.8216306,9.98562225 L22.8216306,12.1148754 L17.6302278,12.1148754 Z M-0.000161111111,0.379685766 L-0.000161111111,29.5615497 L14.4567417,29.5615497 L28.9998389,29.5615497 L28.9998389,0.379685766 L-0.000161111111,0.379685766 Z" id="Fill-1" fill="#70AFCF" mask="url(#mask-2)"></path>
                    </g>
                    <path d="M12.292375,15.0836002 C12.292375,16.4025385 13.3557083,17.4720245 14.6679583,17.4720245 C15.9802083,17.4720245 17.0435417,16.4025385 17.0435417,15.0836002 C17.0435417,13.7646619 15.9802083,12.6951759 14.6679583,12.6951759 C13.3557083,12.6951759 12.292375,13.7646619 12.292375,15.0836002 Z" id="Fill-4" fill="#70AFCF"></path>
                    <path d="M20.829975,8.12400383 L19.0867528,8.12400383 C18.8007806,8.12400383 18.5691833,8.35685293 18.5691833,8.64396599 L18.5691833,10.4358917 C18.5691833,10.7230047 18.8007806,10.9558538 19.0867528,10.9558538 L20.829975,10.9558538 C21.1159472,10.9558538 21.3475444,10.7230047 21.3475444,10.4358917 L21.3475444,8.64396599 C21.3475444,8.35685293 21.1159472,8.12400383 20.829975,8.12400383" id="Fill-6" fill="#70AFCF"></path>
                </g>
            </g>
        </g>
    </g>
</svg>