<?xml version="1.0" encoding="UTF-8"?>
<svg width="29px" height="29px" viewBox="0 0 29 29" version="1.1" xmlns="http://www.w3.org/2000/svg" xmlns:xlink="http://www.w3.org/1999/xlink">
    <!-- Generator: Sketch 39.1 (31720) - http://www.bohemiancoding.com/sketch -->
    <title>skype</title>
    <desc>Created with Sketch.</desc>
    <defs>
        <polygon id="path-1" points="29 29.6253817 29 0.380666385 0.000120833334 0.380666385 0.000120833334 29.6253817"></polygon>
    </defs>
    <g id="Page-1" stroke="none" stroke-width="1" fill="none" fill-rule="evenodd">
        <g id="07-UF_avtory" transform="translate(-998.000000, 0.000000)">
            <g id="header" transform="translate(0.000000, -15.000000)">
                <g id="skype" transform="translate(998.000000, 14.000000)">
                    <g id="Group-3" transform="translate(0.000000, 0.025364)">
                        <mask id="mask-2" fill="white">
                            <use xlink:href="#path-1"></use>
                        </mask>
                        <g id="Clip-2"></g>
                        <path d="M18.8074264,24.148331 C17.8673431,24.148331 16.9892875,23.8857605 16.2405236,23.4296102 C15.7229542,23.5286321 15.1904819,23.5822014 14.6435097,23.5822014 C9.9386625,23.5822014 6.12475972,19.7394189 6.12475972,14.9985397 C6.12475972,14.4774569 6.17349583,13.9689548 6.26130139,13.4730333 C5.79287083,12.7092656 5.52220417,11.8095456 5.52220417,10.8448931 C5.52220417,8.07836567 7.74795417,5.83535595 10.4936903,5.83535595 C11.4390097,5.83535595 12.3223014,6.1011731 13.0750931,6.56300503 C13.5833986,6.46763552 14.1078153,6.41528374 14.6435097,6.41528374 C19.3487597,6.41528374 23.1626625,10.2580663 23.1626625,14.9985397 C23.1626625,15.5098826 23.1151347,16.0094565 23.0309542,16.4960439 C23.5042181,17.2634641 23.7789125,18.1684598 23.7789125,19.138388 C23.7789125,21.9053213 21.5531625,24.148331 18.8074264,24.148331 L18.8074264,24.148331 Z M0.000120833334,0.380625802 L0.000120833334,29.6253817 L29.0001208,29.6253817 L29.0001208,14.9916406 L29.0001208,0.380625802 L0.000120833334,0.380625802 Z" id="Fill-1" fill="#70AFCF" mask="url(#mask-2)"></path>
                    </g>
                    <path d="M12.6941861,12.3753911 C12.6941861,11.4983975 13.5090056,11.0937872 14.4744639,11.0937872 C16.6132139,11.0937872 16.7408944,12.7633624 17.9834639,12.7633624 C18.8345333,12.7633624 19.3251167,12.1854638 19.2485889,11.4423932 C19.0919083,10.305264 17.4824083,9.08737508 14.7350611,8.92544983 C11.8552,8.75459637 10.0225611,10.305264 10.0225611,12.5527378 C10.0225611,16.7059785 16.9201306,15.3521373 16.9201306,17.55984 C16.9201306,18.1714224 16.3759778,19.048416 14.7797694,19.048416 C12.5044778,19.048416 12.5181722,16.9097041 11.0895194,16.9097041 C10.5220056,16.9097041 10.0954639,17.4384976 10.0910333,18.0143671 C10.0793528,19.9217573 12.5181722,21.0300727 14.9437,21.0300727 C17.7031306,21.0300727 19.5506722,19.505378 19.5506722,17.1795795 C19.5506722,13.1444346 12.6941861,14.2089207 12.6941861,12.3753911" id="Fill-4" fill="#70AFCF"></path>
                </g>
            </g>
        </g>
    </g>
</svg>