<?xml version="1.0" encoding="UTF-8"?>
<svg width="24px" height="25px" viewBox="0 0 24 25" version="1.1" xmlns="http://www.w3.org/2000/svg" xmlns:xlink="http://www.w3.org/1999/xlink">
    <!-- Generator: Sketch 39.1 (31720) - http://www.bohemiancoding.com/sketch -->
    <title>footer_ig</title>
    <desc>Created with Sketch.</desc>
    <defs>
        <polygon id="path-1" points="23.9998667 0.308728886 0 0.308728886 0 24.0267433 23.9998667 24.0267433 23.9998667 0.308728886"></polygon>
    </defs>
    <g id="Symbols" stroke="none" stroke-width="1" fill="none" fill-rule="evenodd">
        <g id="footer" transform="translate(-1101.000000, -232.000000)">
            <g id="Group">
                <g id="footer_ig" transform="translate(1101.000000, 232.000000)">
                    <g id="Group-3" transform="translate(0.000000, 0.020571)">
                        <mask id="mask-2" fill="white">
                            <use xlink:href="#path-1"></use>
                        </mask>
                        <g id="Clip-2"></g>
                        <path d="M8.06053333,18.8754471 C6.58653333,18.8754471 5.3912,17.6954972 5.3912,16.240061 L5.3912,10.264281 L9.3162,10.264281 C8.9142,10.821507 8.6772,11.502817 8.6772,12.2387635 C8.6772,14.1220755 10.2232,15.6486049 12.1302,15.6486049 C14.0375333,15.6486049 15.5835333,14.1220755 15.5835333,12.2387635 C15.5835333,11.502817 15.3465333,10.821507 14.9445333,10.264281 L18.8872,10.264281 L18.8872,16.240061 C18.8872,17.6954972 17.6922,18.8754471 16.2178667,18.8754471 L8.06053333,18.8754471 Z M14.7908667,12.2387635 C14.7908667,13.6872878 13.5972,14.8655921 12.1302,14.8655921 C10.6635333,14.8655921 9.4702,13.6872878 9.4702,12.2387635 C9.4702,11.4524593 9.8222,10.7464642 10.3785333,10.264281 C10.5735333,10.0954346 10.7938667,9.95423555 11.0328667,9.84660832 C11.3678667,9.69652263 11.7392,9.61193487 12.1302,9.61193487 C12.5215333,9.61193487 12.8928667,9.69652263 13.2275333,9.84660832 C13.4668667,9.95423555 13.6868667,10.0954346 13.8822,10.264281 C14.4385333,10.7464642 14.7908667,11.4524593 14.7908667,12.2387635 L14.7908667,12.2387635 Z M14.5905333,9.84660832 C13.9638667,9.21894735 13.0935333,8.82925119 12.1302,8.82925119 C11.1668667,8.82925119 10.2965333,9.21894735 9.6702,9.84660832 L5.3912,9.84660832 L5.3912,8.11601505 C5.3912,7.22734981 5.83686667,6.44269132 6.51886667,5.96511604 L6.51886667,8.80292037 L7.0662,8.80292037 L7.0662,5.67021084 C7.1902,5.62084054 7.31886667,5.58068604 7.45153333,5.5504056 L7.45153333,8.80292037 L7.99853333,8.80292037 L7.99853333,5.48194546 C8.01953333,5.48161632 8.03986667,5.48062892 8.06053333,5.48062892 L8.37653333,5.48062892 L8.37653333,8.80292037 L8.92386667,8.80292037 L8.92386667,5.48062892 L16.2178667,5.48062892 C17.6918667,5.48062892 18.8872,6.66057887 18.8872,8.11601505 L18.8868667,8.11601505 L18.8868667,9.84660832 L14.5905333,9.84660832 Z M-0.000133333333,0.308597232 L-0.000133333333,24.0267433 L11.9642,24.0267433 L23.9998667,24.0267433 L23.9998667,0.308597232 L-0.000133333333,0.308597232 Z" id="Fill-1" fill="#4D576A" mask="url(#mask-2)"></path>
                    </g>
                    <path d="M10.173,12.259499 C10.173,13.3314926 11.053,14.2007389 12.139,14.2007389 C13.225,14.2007389 14.105,13.3314926 14.105,12.259499 C14.105,11.1875054 13.225,10.3182592 12.139,10.3182592 C11.053,10.3182592 10.173,11.1875054 10.173,12.259499 Z" id="Fill-4" fill="#4D576A"></path>
                    <path d="M17.2386,6.60294729 L15.7959333,6.60294729 C15.5592667,6.60294729 15.3676,6.79220007 15.3676,7.02555698 L15.3676,8.48198056 C15.3676,8.71533747 15.5592667,8.90459025 15.7959333,8.90459025 L17.2386,8.90459025 C17.4752667,8.90459025 17.6669333,8.71533747 17.6669333,8.48198056 L17.6669333,7.02555698 C17.6669333,6.79220007 17.4752667,6.60294729 17.2386,6.60294729" id="Fill-6" fill="#4D576A"></path>
                </g>
            </g>
        </g>
    </g>
</svg>