<?xml version="1.0" encoding="UTF-8"?>
<svg width="29px" height="30px" viewBox="0 0 29 30" version="1.1" xmlns="http://www.w3.org/2000/svg" xmlns:xlink="http://www.w3.org/1999/xlink">
    <!-- Generator: Sketch 39.1 (31720) - http://www.bohemiancoding.com/sketch -->
    <title>Page 1</title>
    <desc>Created with Sketch.</desc>
    <defs>
        <polygon id="path-1" points="28.9998389 0.376903192 0 0.376903192 0 29.3323904 28.9998389 29.3323904 28.9998389 0.376903192"></polygon>
    </defs>
    <g id="Symbols" stroke="none" stroke-width="1" fill="none" fill-rule="evenodd">
        <g id="header" transform="translate(-960.000000, -14.000000)">
            <g id="Group">
                <g id="Page-1" transform="translate(960.000000, 13.891473)">
                    <g id="Group-3" transform="translate(0.000000, 0.025113)">
                        <mask id="mask-2" fill="white">
                            <use xlink:href="#path-1"></use>
                        </mask>
                        <g id="Clip-2"></g>
                        <path d="M9.73981111,23.0435718 C7.95872778,23.0435718 6.51436667,21.6030623 6.51436667,19.826233 L6.51436667,12.5308659 L11.257075,12.5308659 C10.771325,13.21114 10.48495,14.0428986 10.48495,14.9413587 C10.48495,17.2405485 12.3530333,19.10417 14.657325,19.10417 C16.9620194,19.10417 18.8301028,17.2405485 18.8301028,14.9413587 C18.8301028,14.0428986 18.5437278,13.21114 18.0579778,12.5308659 L22.8220333,12.5308659 L22.8220333,19.826233 C22.8220333,21.6030623 21.378075,23.0435718 19.5965889,23.0435718 L9.73981111,23.0435718 Z M17.8722972,14.9413587 C17.8722972,16.7097499 16.42995,18.1482503 14.657325,18.1482503 C12.8851028,18.1482503 11.4431583,16.7097499 11.4431583,14.9413587 C11.4431583,13.9814208 11.8684917,13.119526 12.5407278,12.5308659 C12.7763528,12.3247344 13.0425889,12.1523554 13.3313806,12.0209616 C13.7361722,11.8377337 14.1848667,11.734467 14.657325,11.734467 C15.1301861,11.734467 15.5788806,11.8377337 15.9832694,12.0209616 C16.2724639,12.1523554 16.5382972,12.3247344 16.774325,12.5308659 C17.4465611,13.119526 17.8722972,13.9814208 17.8722972,14.9413587 L17.8722972,14.9413587 Z M17.6302278,12.0209616 C16.8730056,11.254699 15.8213528,10.7789491 14.657325,10.7789491 C13.4932972,10.7789491 12.4416444,11.254699 11.684825,12.0209616 L6.51436667,12.0209616 L6.51436667,9.90821433 C6.51436667,8.82331175 7.05288056,7.86538296 7.87696389,7.28234828 L7.87696389,10.7468038 L8.538325,10.7468038 L8.538325,6.92232135 C8.68815833,6.86204898 8.84363056,6.81302746 9.00393611,6.77606041 L9.00393611,10.7468038 L9.66489444,10.7468038 L9.66489444,6.69248273 C9.69026944,6.69208091 9.71483889,6.69087546 9.73981111,6.69087546 L10.1216444,6.69087546 L10.1216444,10.7468038 L10.7830056,10.7468038 L10.7830056,6.69087546 L19.5965889,6.69087546 C21.3776722,6.69087546 22.8220333,8.131385 22.8220333,9.90821433 L22.8216306,9.90821433 L22.8216306,12.0209616 L17.6302278,12.0209616 Z M-0.000161111111,0.376742465 L-0.000161111111,29.3323904 L14.4567417,29.3323904 L28.9998389,29.3323904 L28.9998389,0.376742465 L-0.000161111111,0.376742465 Z" id="Fill-1" fill="#016587" mask="url(#mask-2)"></path>
                    </g>
                    <path d="M12.292375,14.966673 C12.292375,16.275387 13.3557083,17.3365825 14.6679583,17.3365825 C15.9802083,17.3365825 17.0435417,16.275387 17.0435417,14.966673 C17.0435417,13.6579591 15.9802083,12.5967636 14.6679583,12.5967636 C13.3557083,12.5967636 12.292375,13.6579591 12.292375,14.966673 Z" id="Fill-4" fill="#0479A1"></path>
                    <path d="M20.829975,8.06102705 L19.0867528,8.06102705 C18.8007806,8.06102705 18.5691833,8.29207112 18.5691833,8.5769585 L18.5691833,10.3549933 C18.5691833,10.6398807 18.8007806,10.8709247 19.0867528,10.8709247 L20.829975,10.8709247 C21.1159472,10.8709247 21.3475444,10.6398807 21.3475444,10.3549933 L21.3475444,8.5769585 C21.3475444,8.29207112 21.1159472,8.06102705 20.829975,8.06102705" id="Fill-6" fill="#016587"></path>
                </g>
            </g>
        </g>
    </g>
</svg>