<?xml version="1.0" encoding="UTF-8"?>
<svg width="29px" height="30px" viewBox="0 0 29 30" version="1.1" xmlns="http://www.w3.org/2000/svg" xmlns:xlink="http://www.w3.org/1999/xlink">
    <!-- Generator: Sketch 39.1 (31720) - http://www.bohemiancoding.com/sketch -->
    <title>Page 1</title>
    <desc>Created with Sketch.</desc>
    <defs>
        <polygon id="path-1" points="29 29.3957276 29 0.377715483 0.000120833334 0.377715483 0.000120833334 29.3957276"></polygon>
    </defs>
    <g id="Symbols" stroke="none" stroke-width="1" fill="none" fill-rule="evenodd">
        <g id="header" transform="translate(-998.000000, -14.000000)">
            <g id="Group">
                <g id="Page-1" transform="translate(998.000000, 13.891473)">
                    <g id="Group-3" transform="translate(0.000000, 0.025168)">
                        <mask id="mask-2" fill="white">
                            <use xlink:href="#path-1"></use>
                        </mask>
                        <g id="Clip-2"></g>
                        <path d="M18.8074264,23.9611347 C17.8673431,23.9611347 16.9892875,23.7005996 16.2405236,23.2479853 C15.7229542,23.3462396 15.1904819,23.3993936 14.6435097,23.3993936 C9.9386625,23.3993936 6.12475972,19.5864001 6.12475972,14.8822719 C6.12475972,14.3652285 6.17349583,13.8606683 6.26130139,13.3685912 C5.79287083,12.6107441 5.52220417,11.7179987 5.52220417,10.7608242 C5.52220417,8.01574268 7.74795417,5.79012064 10.4936903,5.79012064 C11.4390097,5.79012064 12.3223014,6.05387718 13.0750931,6.51212902 C13.5833986,6.41749881 14.1078153,6.36555286 14.6435097,6.36555286 C19.3487597,6.36555286 23.1626625,10.1785464 23.1626625,14.8822719 C23.1626625,15.3896509 23.1151347,15.8853521 23.0309542,16.3681676 C23.5042181,17.1296388 23.7789125,18.0276191 23.7789125,18.9900285 C23.7789125,21.7355126 21.5531625,23.9611347 18.8074264,23.9611347 L18.8074264,23.9611347 Z M0.000120833334,0.377675215 L0.000120833334,29.3957276 L29.0001208,29.3957276 L29.0001208,14.8754263 L29.0001208,0.377675215 L0.000120833334,0.377675215 Z" id="Fill-1" fill="#016587" mask="url(#mask-2)"></path>
                    </g>
                    <path d="M12.6941861,12.2794579 C12.6941861,11.4092626 13.5090056,11.0077889 14.4744639,11.0077889 C16.6132139,11.0077889 16.7408944,12.6644216 17.9834639,12.6644216 C18.8345333,12.6644216 19.3251167,12.0910028 19.2485889,11.3536925 C19.0919083,10.2253783 17.4824083,9.01693032 14.7350611,8.8562603 C11.8552,8.68673128 10.0225611,10.2253783 10.0225611,12.4554298 C10.0225611,16.5764748 16.9201306,15.2331285 16.9201306,17.4237172 C16.9201306,18.0305586 16.3759778,18.9007539 14.7797694,18.9007539 C12.5044778,18.9007539 12.5181722,16.7786211 11.0895194,16.7786211 C10.5220056,16.7786211 10.0954639,17.3033154 10.0910333,17.8747208 C10.0793528,19.767325 12.5181722,20.8670489 14.9437,20.8670489 C17.7031306,20.8670489 19.5506722,19.3541736 19.5506722,17.0464044 C19.5506722,13.0425398 12.6941861,14.098774 12.6941861,12.2794579" id="Fill-4" fill="#016587"></path>
                </g>
            </g>
        </g>
    </g>
</svg>