<?xml version="1.0" encoding="UTF-8"?>
<svg width="196px" height="46px" viewBox="0 0 196 46" version="1.1" xmlns="http://www.w3.org/2000/svg" xmlns:xlink="http://www.w3.org/1999/xlink">
    <!-- Generator: Sketch 39.1 (31720) - http://www.bohemiancoding.com/sketch -->
    <title>logo ufs (1) (1)</title>
    <desc>Created with Sketch.</desc>
    <defs>
        <path d="M192.219582,1.18091952 C192.169015,3.01910416 190.301373,4.92948837 187.052955,4.92948837 C184.189433,4.92948837 182.117015,3.46184524 181.860836,1.18091952 L185.519642,1.18091952 C185.749493,2.08839352 186.184119,2.55478619 187.052955,2.55478619 C187.974866,2.55478619 188.256537,2.08839352 188.587522,1.18091952 L192.219582,1.18091952 L192.219582,1.18091952 Z M195.876299,5.85978407 L195.876299,8.86312051 L194.90591,8.86312051 C194.341731,8.86312051 193.983164,8.88594221 193.983164,9.77017956 L193.983164,18.2445012 C193.983164,19.1299834 194.341731,19.1523901 194.90591,19.1523901 L195.876299,19.1523901 L195.876299,22.1561415 L187.28406,22.1561415 L187.28406,19.1523901 L187.743761,19.1523901 C188.741731,19.1523901 188.641433,18.5947106 188.641433,18.2220944 L188.641433,14.124561 L188.435403,14.124561 L184.62406,22.1561415 L177.999761,22.1561415 L177.999761,19.1523901 L178.972239,19.1523901 C179.865731,19.1523901 179.892896,18.8038405 179.892896,18.2220944 L179.892896,9.77017956 C179.892896,8.88594221 179.534328,8.86312051 178.972239,8.86312051 L177.999761,8.86312051 L177.999761,5.85978407 L186.59409,5.85978407 L186.59409,8.86312051 L186.157373,8.86312051 C185.134746,8.86312051 185.238806,9.39880817 185.238806,9.77017956 L185.238806,14.2876324 L185.390507,14.2876324 L189.328896,5.85978407 L195.876299,5.85978407 L195.876299,5.85978407 Z M176.897731,5.85978407 L176.897731,8.86312051 L175.927343,8.86312051 C175.363164,8.86312051 175.003343,8.88594221 175.003343,9.77017956 L175.003343,18.2445012 C175.003343,19.1299834 175.363164,19.1523901 175.927343,19.1523901 L176.897731,19.1523901 L176.897731,22.1561415 L168.305075,22.1561415 L168.305075,19.1523901 L168.76394,19.1523901 C169.76191,19.1523901 169.659522,18.5947106 169.659522,18.2220944 L169.659522,14.124561 L169.480239,14.124561 L165.670567,22.1561415 L159.046269,22.1561415 L159.046269,19.1523901 L160.018328,19.1523901 C160.862507,19.1523901 160.911821,18.897202 160.911821,18.2220944 L160.911821,9.77017956 C160.911821,8.88594221 160.554507,8.86312051 160.018328,8.86312051 L159.046269,8.86312051 L159.046269,5.85978407 L167.614269,5.85978407 L167.614269,8.86312051 L167.178806,8.86312051 C166.745433,8.86312051 166.260239,8.79341057 166.260239,9.77017956 L166.260239,14.2876324 L166.437433,14.2876324 L170.375821,5.85978407 L176.897731,5.85978407 L176.897731,5.85978407 Z M148.021373,18.1984428 C148.021373,19.1996933 148.558388,19.1523901 148.992179,19.1523901 L149.404239,19.1523901 L149.404239,22.1561415 L140.834149,22.1561415 L140.834149,19.1523901 L141.780299,19.1523901 C142.318985,19.1523901 142.675463,19.1299834 142.675463,18.2445012 L142.675463,9.77017956 C142.675463,8.88594221 142.318985,8.86312051 141.780299,8.86312051 L140.834149,8.86312051 L140.834149,5.85978407 L149.404239,5.85978407 L149.404239,8.86312051 L148.992179,8.86312051 C148.583881,8.86312051 148.021373,8.86312051 148.021373,9.84154926 L148.021373,12.0295284 L148.48191,12.0295284 C149.171463,12.0295284 149.274687,12.1228899 150.195343,9.65524116 C150.962209,7.60626695 151.703582,5.46393122 154.620597,5.46393122 C155.410866,5.46393122 156.255463,5.60459591 156.999343,5.81331078 L156.999343,9.67889274 C156.870209,9.63158957 156.742746,9.63158957 156.61403,9.63158957 C153.802328,9.63158957 156.026866,12.8440558 151.986507,13.3801584 L151.986507,13.6822348 C153.109433,13.6353466 154.516119,14.0772578 155.156776,15.5685525 C155.618567,16.6150314 155.410866,17.6403484 156.537134,17.6403484 C156.742746,17.6403484 157.04991,17.5698086 157.255522,17.5237502 L157.255522,22.1561415 C156.488657,22.4353962 155.795761,22.5511645 155.105791,22.5511645 C152.471701,22.5511645 151.578209,21.0851811 150.911642,19.5959611 C149.531284,16.569388 149.685075,15.2888829 148.506985,15.2888829 L148.021373,15.2888829 L148.021373,18.1984428 L148.021373,18.1984428 Z M130.628358,18.897202 L131.39606,18.897202 C131.985731,18.897202 133.543284,18.8266622 133.543284,17.1274825 C133.543284,15.4278878 132.393612,15.1722847 130.628358,15.2428245 L130.628358,18.897202 L130.628358,18.897202 Z M132.49391,8.86312051 L131.549015,8.86312051 C130.985672,8.86312051 130.628358,8.88594221 130.628358,9.77017956 L130.628358,11.9830551 L131.267343,11.9830551 C134.387045,11.9830551 139.502269,12.1465415 139.502269,17.151134 C139.502269,20.9229395 135.871881,22.1561415 131.138627,22.1561415 L123.414388,22.1561415 L123.414388,19.1523901 L124.386866,19.1523901 C124.925552,19.1523901 125.28203,19.1299834 125.28203,18.2445012 L125.28203,9.77017956 C125.28203,8.88594221 124.925552,8.86312051 124.386866,8.86312051 L123.414388,8.86312051 L123.414388,5.85978407 L132.49391,5.85978407 L132.49391,8.86312051 L132.49391,8.86312051 Z M115.740716,12.0984085 C115.663403,10.3996437 115.560179,8.72328569 113.616478,8.72328569 C111.189672,8.72328569 111.341373,11.1676978 111.341373,13.9382529 C111.341373,19.2233449 112.032179,19.2930548 113.670388,19.2930548 C114.539224,19.2930548 116.09803,19.0366218 116.022388,15.5909593 L122.083343,15.5909593 C121.956716,19.1071617 119.192239,22.5511645 113.695463,22.5511645 C110.240597,22.5511645 105.383642,21.0387078 105.383642,14.0083777 C105.383642,8.74652234 108.936716,5.46393122 113.592239,5.46393122 C118.426627,5.46393122 121.75194,8.28137449 121.802925,12.0984085 L115.740716,12.0984085 L115.740716,12.0984085 Z M85.890209,19.1523901 L86.8639403,19.1523901 C87.4005373,19.1523901 87.7591045,19.1299834 87.7591045,18.2445012 L87.7591045,9.77017956 C87.7591045,8.88594221 87.4005373,8.86312051 86.8639403,8.86312051 L85.890209,8.86312051 L85.890209,5.85978407 L94.1017313,5.85978407 L94.1017313,8.86312051 L93.9742687,8.86312051 C93.2328955,8.86312051 93.1041791,9.11913855 93.1041791,9.79507597 L93.1041791,11.9125153 L96.8143881,11.9125153 L96.8143881,9.79507597 C96.8143881,9.21250007 96.7872239,8.86312051 95.9179701,8.86312051 L95.7913433,8.86312051 L95.7913433,5.85978407 L104.050507,5.85978407 L104.050507,8.86312051 L103.079284,8.86312051 C102.59409,8.86312051 102.159463,8.88594221 102.159463,9.77017956 L102.159463,18.2445012 C102.159463,19.1299834 102.59409,19.1523901 103.079284,19.1523901 L104.050507,19.1523901 L104.050507,22.1561415 L95.7913433,22.1561415 L95.7913433,19.1523901 L95.9179701,19.1523901 C96.4558209,19.1523901 96.8143881,19.1299834 96.8143881,18.2445012 L96.8143881,15.1722847 L93.1041791,15.1722847 L93.1041791,18.2445012 C93.1041791,19.1299834 93.384597,19.1523901 94.0248358,19.1523901 L94.1272239,19.1523901 L94.1272239,22.1561415 L85.890209,22.1561415 L85.890209,19.1523901 L85.890209,19.1523901 Z M81.8506866,0.319088936 C83.230209,0.319088936 84.4082985,1.34399098 84.4082985,2.62408118 C84.4082985,3.88134968 83.257791,4.92948837 81.8506866,4.92948837 C80.4427463,4.92948837 79.3173134,3.90541621 79.3173134,2.62408118 C79.3173134,1.32033939 80.4690746,0.319088936 81.8506866,0.319088936 L81.8506866,0.319088936 Z M82.7454328,8.86312051 L82.0278806,8.86312051 C81.1335522,8.86312051 81.1084776,9.21250007 81.1084776,9.79507597 L81.1084776,18.2445012 C81.1084776,19.2233449 81.5936716,19.1523901 82.0278806,19.1523901 L82.7454328,19.1523901 L82.7454328,22.1561415 L74.1519403,22.1561415 L74.1519403,19.1523901 L74.8669851,19.1523901 C75.4048358,19.1523901 75.7613134,19.1299834 75.7613134,18.2445012 L75.7613134,9.79507597 C75.7613134,9.21250007 75.7358209,8.86312051 74.8669851,8.86312051 L74.1519403,8.86312051 L74.1519403,5.85978407 L82.7454328,5.85978407 L82.7454328,8.86312051 L82.7454328,8.86312051 Z M75.0207761,0.319088936 C76.3505672,0.319088936 77.5528955,1.32033939 77.5528955,2.62408118 C77.5528955,3.60250994 76.6840597,4.92948837 75.0207761,4.92948837 C73.588597,4.92948837 72.464,3.88134968 72.464,2.62408118 C72.464,1.32033939 73.6149254,0.319088936 75.0207761,0.319088936 L75.0207761,0.319088936 Z M60.0065075,14.7303735 L63.126209,14.7303735 L61.6940299,10.0739157 L61.5661493,10.0739157 L60.0065075,14.7303735 L60.0065075,14.7303735 Z M69.9034627,17.7797683 C70.1608955,18.6640056 70.3380896,19.1523901 71.2094328,19.1523901 L71.5922388,19.1523901 L71.5922388,22.1561415 L63.0501493,22.1561415 L63.0501493,19.1523901 L63.662806,19.1523901 C63.8939104,19.1523901 64.3540299,19.1996933 64.3540299,18.7814337 C64.3540299,18.6179473 64.227403,18.1984428 64.1492537,17.9880682 L58.9065672,17.9880682 C58.8284179,18.1515546 58.7281194,18.4316392 58.7281194,18.5702292 C58.7281194,19.1299834 59.1614925,19.1523901 59.4699104,19.1523901 L59.724,19.1523901 L59.724,22.1561415 L52.868597,22.1561415 L52.868597,19.1523901 L53.2798209,19.1523901 C54.2510448,19.1523901 54.4821493,18.6872423 54.9924179,17.1743707 L57.4743881,9.95814743 C57.6273433,9.4921697 57.6779104,9.35191994 57.6779104,9.18884848 C57.6779104,9.00212544 57.6273433,8.86312051 56.6042985,8.86312051 L56.1696716,8.86312051 L56.1696716,5.85978407 L66.2985672,5.85978407 L69.9034627,17.7797683 L69.9034627,17.7797683 Z M43.7380896,13.0536006 C45.6048955,13.1000739 46.5259701,12.5179129 46.5259701,11.0510996 C46.5259701,9.58470134 45.5798209,9.04942861 43.7380896,9.11913855 L43.7380896,13.0536006 L43.7380896,13.0536006 Z M43.7380896,18.2445012 C43.7380896,19.1299834 44.0958209,19.1523901 44.6587463,19.1523901 L45.6048955,19.1523901 L45.6048955,22.1561415 L36.5253731,22.1561415 L36.5253731,19.1523901 L37.4978507,19.1523901 C38.0357015,19.1523901 38.3921791,19.1299834 38.3921791,18.2445012 L38.3921791,9.77017956 C38.3921791,8.88594221 38.0357015,8.86312051 37.4978507,8.86312051 L36.5253731,8.86312051 L36.5253731,5.85978407 L43.3544478,5.85978407 C49.1099104,5.85978407 52.3073433,7.00086934 52.3073433,11.3548358 C52.3073433,15.9166872 48.1374328,16.4760265 43.7380896,16.312955 L43.7380896,18.2445012 L43.7380896,18.2445012 Z M25.5008955,18.1984428 C25.5008955,19.1996933 26.0379104,19.1523901 26.4721194,19.1523901 L26.8816716,19.1523901 L26.8816716,22.1561415 L18.3132537,22.1561415 L18.3132537,19.1523901 L19.2602388,19.1523901 C19.7972537,19.1523901 20.1545672,19.1299834 20.1545672,18.2445012 L20.1545672,9.77017956 C20.1545672,8.88594221 19.7972537,8.86312051 19.2602388,8.86312051 L18.3132537,8.86312051 L18.3132537,5.85978407 L26.8816716,5.85978407 L26.8816716,8.86312051 L26.4721194,8.86312051 C26.0629851,8.86312051 25.5008955,8.86312051 25.5008955,9.84154926 L25.5008955,12.0295284 L25.9610149,12.0295284 C26.651403,12.0295284 26.753791,12.1228899 27.6744478,9.65524116 C28.4425672,7.60626695 29.1839403,5.46393122 32.0988657,5.46393122 C32.8920597,5.46393122 33.7366567,5.60459591 34.4780299,5.81331078 L34.4780299,9.67889274 C34.3505672,9.63158957 34.2218507,9.63158957 34.0935522,9.63158957 C31.2814328,9.63158957 33.506806,12.8440558 29.465194,13.3801584 L29.465194,13.6822348 C30.5918806,13.6353466 31.9985672,14.0772578 32.6379701,15.5685525 C33.0976716,16.6150314 32.8920597,17.6403484 34.0174925,17.6403484 C34.2218507,17.6403484 34.5290149,17.5698086 34.7346269,17.5237502 L34.7346269,22.1561415 C33.9665075,22.4353962 33.2769552,22.5511645 32.5861493,22.5511645 C29.950806,22.5511645 29.0560597,21.0851811 28.392,19.5959611 C27.0099701,16.569388 27.1633433,15.2888829 25.9873433,15.2888829 L25.5008955,15.2888829 L25.5008955,18.1984428 L25.5008955,18.1984428 Z M8.74519403,5.85978407 L8.74519403,8.86312051 L8.43970149,8.86312051 C8.33814925,8.86312051 7.87761194,8.83946892 7.87761194,9.25897336 C7.87761194,9.56146469 8.03140299,9.74735786 8.15886567,9.95814743 L10.000597,13.1930204 L11.2029254,10.2602238 C11.4833433,9.58470134 11.5339104,9.37515659 11.5339104,9.23573672 C11.5339104,8.79341057 11.0232239,8.86312051 10.7682985,8.86312051 L10.4615522,8.86312051 L10.4615522,5.85978407 L17.1364179,5.85978407 L17.1364179,8.86312051 C15.4225672,8.88594221 15.6018507,9.16602678 14.9628657,10.7490233 L13.0442388,15.4511245 C10.4097313,21.9470117 8.9520597,22.5511645 5.93349254,22.5511645 C4.65426866,22.5511645 3.7841791,22.4353962 2.83928358,22.1561415 L2.81295522,17.9191882 C3.73361194,18.5702292 4.50131343,18.5947106 4.75665672,18.5947106 C5.60041791,18.5947106 6.13826866,18.4084025 6.496,17.6403484 L2.37707463,10.4934202 C1.84173134,9.53781311 1.66244776,8.86312051 0.562089552,8.86312051 L0,8.86312051 L0,5.85978407 L8.74519403,5.85978407 L8.74519403,5.85978407 Z" id="path-1"></path>
    </defs>
    <g id="Symbols" stroke="none" stroke-width="1" fill="none" fill-rule="evenodd">
        <g id="header" transform="translate(-220.000000, -26.000000)">
            <g id="Group">
                <g id="logo-ufs-(1)-(1)" transform="translate(220.000000, 25.798450)">
                    <g id="Group-4">
                        <mask id="mask-2" fill="white">
                            <use xlink:href="#path-1"></use>
                        </mask>
                        <g id="Clip-2"></g>
                        <polygon id="Fill-1" fill="#0095C8" mask="url(#mask-2)" points="0 13.4747648 195.876299 13.4747648 195.876299 0.319088936 0 0.319088936"></polygon>
                        <polygon id="Fill-3" fill="#F3D01D" mask="url(#mask-2)" points="0 22.5511645 195.876299 22.5511645 195.876299 13.4747648 0 13.4747648"></polygon>
                    </g>
                    <path d="M46.6362985,43.6023205 C45.8886567,43.6023205 45.849791,43.0985832 45.849791,42.9973378 C45.849791,42.8778351 45.8815522,42.6770041 46.2526567,41.687372 C46.494209,41.0421401 46.6638806,40.440062 46.755403,39.8985652 C46.848597,39.3433753 46.9158806,38.6998032 46.9580896,37.9823718 C47.0023881,37.267845 47.0245373,36.4022799 47.0245373,35.4093283 L47.0245373,34.7914825 C47.0245373,34.4939704 47.0182687,34.2093215 47.0107463,33.9371208 C47.0023881,33.6562063 46.9973731,33.388155 46.9973731,33.1308922 C46.9973731,31.5329579 47.0065672,30.5441556 47.0245373,30.1151075 C47.0341493,29.8362678 47.0458507,29.5723659 47.0562985,29.3254765 L43.4037612,29.3254765 C42.9883582,29.3254765 42.6816119,29.3022399 42.462209,29.2561815 C42.1015522,29.1827371 41.8712836,28.9304536 41.8641791,28.5943521 C41.8407761,28.2362588 41.9895522,27.9337674 42.2879403,27.7399904 C42.5244776,27.5868775 42.8504478,27.486462 43.288,27.4300302 C43.6716418,27.3818971 44.2454328,27.3366686 44.9985075,27.2960045 C45.7833433,27.2570001 46.4444776,27.237498 47.025791,27.237498 L47.0813731,27.237498 C47.1018507,26.5690295 47.1691343,25.650767 47.2848955,24.4470258 C47.4286567,22.9827022 47.5761791,21.9652691 47.7408358,21.3399543 C48.0592836,20.0631837 48.4675821,18.9980324 48.9557015,18.1793556 C49.6172537,17.0598472 50.3878806,16.4917942 51.2462687,16.4917942 C51.6896716,16.4917942 52.1410149,16.6868161 52.5877612,17.0743701 C53.0499701,17.4743724 53.284,17.9216778 53.284,18.4013486 C53.284,18.8220978 53.2058507,19.2042576 53.0520597,19.5366247 C52.7904478,20.1067524 52.3474627,20.1914001 52.1084179,20.1914001 C51.9613134,20.1914001 51.6094328,20.1320637 51.5099701,19.5714796 C51.4995224,19.5050892 51.4869851,19.4619354 51.4807164,19.4391137 C51.4004776,19.3951301 51.3540896,19.375213 51.328597,19.3640096 C51.2358209,19.3868313 51.0335522,19.5349649 50.7673433,19.9864197 C50.470209,20.4909869 50.2570746,21.0673387 50.1371343,21.7001223 C50.0113433,22.3544829 49.9039403,23.2225376 49.8161791,24.2802199 C49.7351045,25.2727566 49.6916418,26.2362475 49.6895522,27.1462111 C50.0460299,27.1532651 50.5270448,27.168203 51.1451343,27.18895 C52.2020299,27.2287842 52.5626866,27.237498 52.6809552,27.237498 C53.876597,27.237498 54.5832836,27.2611495 54.9071642,27.3138469 C56.1504478,27.5146779 56.4112239,28.1117767 56.4112239,28.5773395 C56.4112239,29.107633 56.1759403,29.3653108 55.9807761,29.488548 C55.7475821,29.6333621 55.435403,29.7043168 55.0262687,29.7043168 C54.8440597,29.7043168 54.7069851,29.696018 54.6012537,29.6794204 C54.2205373,29.6769308 53.7817313,29.626723 53.2944478,29.5304569 C52.7231642,29.4155185 52.4699104,29.3798337 52.3579104,29.3694602 C51.4318209,29.308464 50.5124179,29.2773435 49.6318806,29.2760987 C49.6172537,30.0761032 49.5675224,31.4010069 49.4789254,33.2209342 C49.461791,33.6230111 49.4271045,34.1748815 49.3736119,34.9006117 C49.3736119,35.7246827 49.3468657,36.4877576 49.2954627,37.1686743 C49.1888955,38.4881838 49.0083582,39.574082 48.7597015,40.3960784 C48.5106269,41.2106058 48.2565373,41.8819789 48.0045373,42.3886207 C47.5749254,43.2089573 47.1290149,43.6023205 46.6362985,43.6023205" id="Fill-5" fill="#1A1918"></path>
                    <path d="M56.0158806,28.5773395 C56.0158806,28.8615735 55.9335522,29.0549356 55.7697313,29.1578407 C55.6042388,29.2603309 55.3555821,29.3130283 55.0262687,29.3130283 C54.8532537,29.3130283 54.7216119,29.3043146 54.6359403,29.2897917 C54.2702687,29.2897917 53.8515224,29.2404138 53.372597,29.1474672 C52.8928358,29.0507862 52.5689552,28.996429 52.3959403,28.9798314 C51.440597,28.9167605 50.5082388,28.88564 49.6076418,28.88564 L49.242806,28.88564 C49.242806,29.5956025 49.1897313,31.0354447 49.0844179,33.2018469 C49.0677015,33.6147123 49.032597,34.1757113 48.981194,34.8856739 C48.981194,35.7076702 48.9557015,36.4595416 48.9030448,37.1392135 C48.7977313,38.4359013 48.6247164,39.4848699 48.3827463,40.2827997 C48.1382687,41.0819743 47.8946269,41.7259614 47.6501493,42.2160056 C47.3041194,42.8799098 46.9656119,43.2131067 46.6362985,43.2131067 C46.3738507,43.2131067 46.2430448,43.1409071 46.2430448,42.9973378 C46.2430448,42.8882086 46.3696716,42.4956753 46.6216716,41.8243022 C46.8736716,41.1520992 47.0479403,40.5321787 47.1436418,39.962466 C47.2397612,39.3919233 47.3095522,38.7404674 47.3505075,38.0064383 C47.394806,37.2711645 47.417791,36.4039397 47.417791,35.4093283 L47.417791,34.7914825 C47.417791,34.4918957 47.4115224,34.2018526 47.4044179,33.9255025 C47.394806,33.6491524 47.3914627,33.3840056 47.3914627,33.1308922 C47.3914627,31.5653232 47.3989851,30.5653175 47.417791,30.1296304 C47.4328358,29.696018 47.4516418,29.2980905 47.4683582,28.9337731 L43.4037612,28.9337731 C43.022209,28.9337731 42.7330149,28.9126111 42.5453731,28.8731918 C42.3535522,28.8341875 42.2586866,28.7346018 42.2586866,28.5773395 C42.2407164,28.3545167 42.321791,28.186051 42.5044179,28.0665483 C42.6878806,27.9491202 42.9653731,27.8657173 43.3385672,27.8175842 C43.7117612,27.7715259 44.2730149,27.7271273 45.0206567,27.687708 C45.766209,27.6478737 46.4361194,27.6287865 47.025791,27.6287865 L47.4683582,27.6287865 C47.4683582,26.9628076 47.5381493,25.9175735 47.6773134,24.4843704 C47.8164776,23.0544868 47.9644179,22.0378836 48.1202985,21.4374653 C48.4324776,20.1880806 48.8248955,19.1685728 49.2933731,18.3781119 C49.8838806,17.3805959 50.535403,16.8830827 51.2462687,16.8830827 C51.5943881,16.8830827 51.9550448,17.0453243 52.3286567,17.3685626 C52.7026866,17.6938757 52.8894925,18.0366162 52.8894925,18.4013486 C52.8894925,18.7644211 52.8263881,19.0897342 52.6934925,19.375213 C52.5626866,19.6582021 52.3687761,19.8009415 52.1084179,19.8009415 C52.0039403,19.8009415 51.9341493,19.7026007 51.898209,19.5042593 C51.8643582,19.3063329 51.8125373,19.1835106 51.7431642,19.1357925 C51.5513433,19.0266633 51.4213731,18.9714763 51.3540896,18.9714763 C51.0586269,18.9714763 50.7485373,19.243677 50.428,19.7893232 C50.1053731,20.3341395 49.8805373,20.947421 49.7488955,21.6283377 C49.6180896,22.3067648 49.5106866,23.1806286 49.4250149,24.2478545 C49.3376716,25.3154954 49.2933731,26.3242148 49.2933731,27.271938 L49.2933731,27.5325204 C49.658209,27.5325204 50.2700299,27.549118 51.1305075,27.5806534 C51.9901493,27.6121889 52.5079403,27.6287865 52.6809552,27.6287865 C53.8281194,27.6287865 54.548597,27.6499484 54.8440597,27.7001562 C55.6255522,27.8267129 56.0158806,28.1180008 56.0158806,28.5773395" id="Fill-6" fill="#1A1918"></path>
                    <path d="M60.447403,28.8018221 C59.8727761,28.8018221 59.2216716,29.30141 58.510806,30.2844031 C57.7748657,31.3126247 57.3995821,32.1358658 57.3995821,32.7284003 C57.3995821,33.0466593 57.428,33.319275 57.4798209,33.5350438 C57.4835821,33.5495667 57.4881791,33.5620149 57.4898507,33.5748781 C57.6925373,33.4499811 58.2471045,32.9653311 59.434806,31.0960259 C59.789194,30.5371016 60.6141493,29.2308702 60.6141493,29.2308702 C60.6371343,29.1640648 60.6517612,29.1043135 60.6517612,29.0507862 C60.6517612,28.8018221 60.5907463,28.8018221 60.447403,28.8018221 L60.447403,28.8018221 Z M63.6770149,36.8429463 C62.6928358,36.8429463 61.9385075,36.3885869 61.4315821,35.4923163 C61.1014328,34.9089105 60.8891343,34.1454207 60.7921791,33.1790252 C60.5075821,33.6354593 60.2426269,34.018864 60.0002388,34.32343 C59.0269254,35.5558021 58.1079403,36.1549756 57.1906269,36.1549756 C56.3364179,36.1549756 55.7475821,35.909746 55.4374925,35.4304902 C55.1570746,34.995633 55.0220896,34.3454218 55.0220896,33.4396076 C55.0220896,32.2848293 55.4617313,30.9649049 56.3280597,29.5138593 C57.4438806,27.6727701 58.8125373,26.73874 60.3947463,26.73874 C60.9873433,26.73874 61.4186269,26.7930971 61.712,26.9076206 C61.9723582,27.0109407 62.2573731,27.1964189 62.5779104,27.4740138 C62.8541493,27.5092837 63.0986269,27.6939321 63.3075821,28.026714 C63.5207164,28.366135 63.6281194,28.7511994 63.6281194,29.1702889 C63.6281194,29.6101254 63.601791,30.278179 63.5491343,31.1620014 C63.4985672,32.0333756 63.4709851,32.5935447 63.4709851,32.8230066 C63.4709851,33.7151278 63.5616716,34.0354616 63.6176716,34.1487402 C63.7083582,34.3400276 63.9001791,34.5894066 64.5625672,34.5894066 C65.1773134,34.5894066 65.7218507,34.5441782 66.1802985,34.455381 C66.994806,34.3035129 67.8786866,33.9811044 68.8110448,33.4972843 C69.4036418,33.2026768 70.1525373,32.7068234 71.0456119,32.016778 C71.6733134,31.5474808 71.7577313,31.5055718 71.9115224,31.5055718 L71.941194,31.5055718 L71.9696119,31.5105511 C72.6119403,31.6059873 72.9517015,32.0005953 72.8798209,32.570723 C72.8647761,32.8113883 72.6963582,33.0869085 71.9579104,33.7130531 C71.3155821,34.2520603 70.6164179,34.7213576 69.883403,35.1122311 C68.7717612,35.6910726 67.6927164,36.1296643 66.6763582,36.4147281 C65.655403,36.699377 64.6469851,36.8429463 63.6770149,36.8429463 L63.6770149,36.8429463 Z" id="Fill-7" fill="#1A1918"></path>
                    <path d="M60.9685373,29.4072197 C61.0199403,29.2810779 61.0462687,29.16282 61.0462687,29.0507862 C61.0462687,28.6238128 60.8460896,28.4101187 60.447403,28.4101187 C59.7344478,28.4101187 58.9813731,28.9607442 58.1923582,30.0595056 C57.4016716,31.1590968 57.0071642,32.0491433 57.0071642,32.7284003 C57.0071642,33.0752902 57.0355821,33.3757068 57.0978507,33.6292352 C57.1588657,33.8815188 57.2579104,34.0093204 57.3970746,34.0093204 C57.8317015,34.0093204 58.622806,33.1076555 59.7670448,31.3043259 C60.1690746,30.6740319 60.5677612,30.0395884 60.9685373,29.4072197 L60.9685373,29.4072197 Z M72.4853134,32.5379428 C72.4853134,32.6802672 72.2237015,32.9723851 71.7029851,33.4155411 C71.0794627,33.9371208 70.4078806,34.3881607 69.6978507,34.766586 C68.6041791,35.3362988 67.5602388,35.7603676 66.5706269,36.0367177 C65.5814328,36.3130678 64.6152239,36.4524877 63.6770149,36.4524877 C62.8432836,36.4524877 62.2084776,36.069083 61.7763582,35.300614 C61.3417313,34.5338047 61.1244179,33.3757068 61.1244179,31.8279803 C60.5865672,32.8072389 60.1076418,33.5578655 59.691403,34.0806901 C58.8050149,35.2018582 57.9708657,35.7632722 57.1906269,35.7632722 C56.4755821,35.7632722 56.0041791,35.5819433 55.7688955,35.2188708 C55.5348657,34.8533085 55.416597,34.2616039 55.416597,33.4396076 C55.416597,32.3474853 55.8345075,31.1076443 56.667403,29.7146903 C57.7092537,27.9931039 58.9529552,27.1304434 60.3947463,27.1304434 C60.932597,27.1304434 61.3237612,27.1765018 61.567403,27.271938 C61.8089552,27.3682041 62.094806,27.5648857 62.4270448,27.8657173 C62.6176119,27.8341818 62.8014925,27.9557593 62.9740896,28.2321094 C63.1475224,28.5092894 63.2348657,28.8217393 63.2348657,29.1702889 C63.2348657,29.5956025 63.2085373,30.2532826 63.1567164,31.1379349 C63.1048955,32.0250768 63.0777313,32.5852459 63.0777313,32.8230066 C63.0777313,33.5665793 63.14,34.0636775 63.261194,34.3172059 C63.4680597,34.759947 63.9026866,34.9823549 64.5625672,34.9823549 C65.2061493,34.9823549 65.7711642,34.9338069 66.2563582,34.8396155 C67.1097313,34.6802785 68.0220299,34.3495712 68.9924179,33.8425144 C69.6008955,33.5412679 70.3656716,33.0367008 71.2871642,32.3242486 C71.6678806,32.0395997 71.8780896,31.8972753 71.9115224,31.8972753 C72.347403,31.9620059 72.5379701,32.1736254 72.4853134,32.5379428 L72.4853134,32.5379428 Z" id="Fill-8" fill="#1A1918"></path>
                    <path d="M76.3685373,36.4860978 C75.7115821,36.4860978 75.0859701,36.3694996 74.5134328,36.138378 C73.9241791,35.8993725 73.4335522,35.5433539 73.0632836,35.0827704 C72.8321791,34.8039307 72.599403,34.4773728 72.3820896,34.1151301 C72.1300896,33.6939659 72.0151642,33.367408 72.0151642,33.083589 C72.0151642,32.1263222 72.6930149,32.0520479 72.9007164,32.0520479 L72.9345672,32.0528778 C73.3817313,32.0918822 73.6696716,32.5254946 73.8481194,32.8491479 C73.9555224,33.0744603 74.0758806,33.298528 74.2171343,33.5350438 C74.2973731,33.6678247 74.4871045,33.8889877 74.9309254,34.1811056 C75.3542687,34.4607752 75.6071045,34.5192817 75.7433433,34.5192817 L75.7504478,34.5192817 C75.7253731,34.4188662 75.6493134,34.2279938 75.4382687,33.8993612 C75.1791642,33.4972843 74.928,33.1159543 74.6835224,32.7537116 L74.6684776,32.7254957 C74.5527164,32.5171958 74.2718806,32.0898075 73.8288955,31.4553641 C73.1857313,30.527558 72.8735522,29.7337776 72.8735522,29.0279645 C72.8735522,28.1105319 73.1130149,27.3105274 73.5844179,26.6528474 C74.0863284,25.9553331 74.8289552,25.5993144 75.7939104,25.5993144 C76.6786269,25.5993144 77.4442388,25.8424693 78.0690149,26.3221401 C78.6532537,26.7619766 78.9503881,27.2412324 78.9503881,27.7474593 C78.9503881,28.1922751 78.9165373,28.4541023 78.8375522,28.6238128 C78.7134328,28.8831504 78.4359403,29.0155163 78.0096716,29.0155163 C77.6268657,29.0155163 77.4128955,28.975682 77.266209,28.8769263 C77.1872239,28.8217393 77.0752239,28.7242283 76.8579104,28.4279611 C76.6869851,28.2047233 76.5457313,28.0445564 76.4341493,27.957834 C76.2632239,27.8238083 76.0797612,27.7586627 75.8749851,27.7586627 C75.5799403,27.7586627 75.4783881,27.8781655 75.4152836,27.9976682 C75.2886567,28.2404082 75.2234627,28.588128 75.2234627,29.0279645 C75.2234627,29.2719493 75.3016119,29.5702912 75.4520597,29.9159363 C75.6133731,30.2802537 75.949791,30.8142816 76.4529552,31.5034971 C76.817791,32.0080643 77.181791,32.5043326 77.545791,32.993547 C77.9645373,33.6458328 78.1701493,34.2595292 78.1701493,34.8396155 C78.1701493,35.4553866 77.9971343,35.8972978 77.6594627,36.1487515 C77.3535522,36.3757237 76.9318806,36.4860978 76.3685373,36.4860978" id="Fill-9" fill="#1A1918"></path>
                    <path d="M78.5558806,27.7474593 C78.5558806,28.1117767 78.530806,28.3495374 78.4802388,28.4582517 C78.4275821,28.5690407 78.2712836,28.6238128 78.0096716,28.6238128 C77.7334328,28.6238128 77.5583284,28.6005762 77.4868657,28.553273 C77.4191642,28.5043101 77.3134328,28.387297 77.1763582,28.1976693 C76.9845373,27.9453858 76.8198806,27.7628121 76.6807164,27.6499484 C76.4383284,27.4615656 76.1671045,27.3682041 75.8749851,27.3682041 C75.4900896,27.3682041 75.2213731,27.5179975 75.0650746,27.8175842 C74.909194,28.1180008 74.829791,28.5209077 74.829791,29.0279645 C74.829791,29.3283811 74.9162985,29.6761009 75.091403,30.0711239 C75.2656716,30.4665618 75.6133731,31.019677 76.1324179,31.7317142 C76.4993433,32.238356 76.8641791,32.7350393 77.2281791,33.2250836 C77.5921791,33.7947963 77.7756418,34.3329736 77.7756418,34.8396155 C77.7756418,35.3300747 77.6573731,35.6616118 77.4233433,35.8346419 C77.1880597,36.0085018 76.8370149,36.0964691 76.3685373,36.0964691 C75.7600597,36.0964691 75.1917015,35.9894145 74.662209,35.7757204 C74.1327164,35.5624412 73.7022687,35.2504062 73.3712836,34.8396155 C73.1456119,34.5694895 72.9295522,34.2616039 72.720597,33.9138841 C72.5128955,33.5665793 72.4071642,33.2898142 72.4071642,33.083589 C72.4071642,32.6574455 72.5718209,32.4429215 72.9007164,32.4429215 C73.0929552,32.4586892 73.2931343,32.6574455 73.5,33.0367008 C73.6053134,33.2582788 73.7319403,33.4910602 73.8794627,33.7358748 C74.027403,33.9811044 74.3057313,34.2387822 74.7127761,34.5068335 C75.1198209,34.7757147 75.4658507,34.9109852 75.7433433,34.9109852 C76.0204179,34.9109852 76.16,34.8072502 76.16,34.6010249 C76.16,34.3956296 76.029194,34.0910636 75.7709254,33.6877418 C75.5101493,33.2856648 75.2568955,32.9022602 75.0145075,32.5379428 C74.8912239,32.3159498 74.6053731,31.8815075 74.1536119,31.2354458 C73.5631045,30.3806692 73.2680597,29.6437356 73.2680597,29.0279645 C73.2680597,28.1902004 73.4799403,27.4740138 73.9070448,26.8810644 C74.3312239,26.2877001 74.9597612,25.9910179 75.7939104,25.9910179 C76.5933731,25.9910179 77.2712239,26.2059569 77.8270448,26.6321004 C78.3126567,26.9964178 78.5558806,27.3682041 78.5558806,27.7474593" id="Fill-10" fill="#1A1918"></path>
                    <path d="M92.2119403,36.5591273 C90.5791642,36.5591273 89.1871045,36.2118224 88.069194,35.5275862 C87.3332537,35.0806957 86.6052537,34.28899 85.8500896,33.1159543 C85.5433433,33.5748781 85.1856119,34.018864 84.7848358,34.4416879 C84.0025075,35.2607797 83.3388657,35.6566326 82.753791,35.6566326 C81.9447164,35.6566326 81.3174328,35.2545556 80.9375522,34.4910658 C80.8614925,34.3246748 80.7202388,33.9383656 80.3374328,32.41844 L80.3299104,32.3810954 C80.2918806,32.127567 80.257194,31.448725 80.2225075,30.3076397 C80.1865672,29.2018244 80.168597,28.1943498 80.168597,27.3188262 C80.168597,26.5229711 80.1464478,25.5586503 80.1042388,24.3690171 C80.0653731,23.3188037 80.0386269,22.5872643 80.0386269,22.5046912 C80.0386269,22.1822827 80.0156418,21.9071774 79.9692537,21.6835247 C79.7256119,20.4789536 79.7256119,20.4714847 79.7256119,20.4175425 C79.7256119,20.2042633 79.8016716,19.8880789 80.154806,19.5951312 C80.4164179,19.3781175 80.6947463,19.2677435 80.9785075,19.2677435 C81.2518209,19.2677435 81.5197015,19.4075783 81.7980299,19.6963766 C82.0408358,19.9461705 82.2092537,20.220031 82.2970149,20.5059247 C82.3517612,20.6889133 82.4202985,21.1092476 82.4700299,22.7432817 C82.5047164,23.954077 82.520597,25.3503504 82.520597,26.8926827 C82.520597,28.7935233 82.576597,30.3723704 82.6881791,31.5893897 C82.7767761,32.5578599 82.8950448,32.9337956 82.9560597,33.0744603 C83.0722388,33.0304767 83.2745075,32.9043349 83.5678806,32.550391 C83.8441194,32.2259078 84.0952836,31.8113827 84.3230448,31.31055 C84.4877015,30.9213362 84.6139104,30.6636584 84.7100299,30.5084708 C85.0652537,29.9412476 85.5420896,29.8217449 85.8797612,29.8217449 C86.3173134,29.8217449 86.7214328,30.0939456 87.1146866,30.6532848 C87.2981493,30.9545314 87.4761791,31.2246574 87.6608955,31.4827501 C88.1448358,32.1839989 88.6271045,32.8781937 89.1089552,33.5748781 L89.1532537,33.6387789 C89.8390448,34.3014382 90.8863284,34.6375397 92.264597,34.6375397 C93.1359403,34.6375397 94.033194,34.3557953 94.9329552,33.8030951 C95.8945672,33.0869085 96.7404179,32.4479008 97.5210746,31.8491422 L97.6284776,31.767399 L97.7613731,31.767399 C98.107403,31.767399 98.3088358,31.7902207 98.4471642,31.9192671 C98.5988657,32.0561973 98.6264478,32.2649122 98.6264478,32.6802672 L98.6243582,32.7138774 C98.5905075,33.0960372 98.3163582,33.6562063 96.5318806,34.919284 C95.0140299,36.0060121 93.5605373,36.5591273 92.2119403,36.5591273" id="Fill-11" fill="#1A1918"></path>
                    <path d="M98.233194,32.6802672 C98.196,33.0752902 97.5536716,33.7172025 96.3020299,34.6010249 C94.8443582,35.6462591 93.4807164,36.1674238 92.2119403,36.1674238 C90.6477015,36.1674238 89.3358806,35.8429407 88.2756418,35.1956341 C87.4941493,34.7180381 86.6854925,33.7798585 85.8521791,32.3707219 C85.4873433,33.0051653 85.0368358,33.6059986 84.4981493,34.1757113 C83.8031642,34.9026864 83.2218507,35.2649291 82.753791,35.2649291 C82.091403,35.2649291 81.606209,34.9495746 81.2927761,34.3172059 C81.1895522,34.0960428 80.9973134,33.430064 80.7202388,32.3242486 C80.6842985,32.0869029 80.6496119,31.4113804 80.6145075,30.2951915 C80.5810746,29.1819073 80.5631045,28.1902004 80.5631045,27.3188262 C80.5631045,26.5146723 80.5409552,25.526285 80.4966567,24.355324 C80.4544478,23.185193 80.4331343,22.5673471 80.4331343,22.5046912 C80.4331343,22.1573863 80.4080597,21.8557249 80.355403,21.6042712 C80.1982687,20.8287481 80.1201194,20.4337252 80.1201194,20.4175425 C80.1201194,20.227085 80.2162388,20.0552998 80.4080597,19.8955479 C80.597791,19.7366258 80.7875224,19.6582021 80.9785075,19.6582021 C81.1377313,19.6582021 81.3149254,19.7615222 81.5134328,19.9685773 C81.7136119,20.1723129 81.848597,20.3909863 81.9183881,20.6196183 C81.9881791,20.8486653 82.0408358,21.5594576 82.0755224,22.7536553 C82.1093731,23.9486827 82.1273433,25.3271137 82.1273433,26.8926827 C82.1273433,28.8059715 82.1841791,30.3831588 82.2970149,31.6250746 C82.4098507,32.8665753 82.5974925,33.4869108 82.8557612,33.4869108 C83.1499701,33.4869108 83.4909851,33.2582788 83.8725373,32.7976953 C84.168,32.4512203 84.438806,32.0093091 84.6816119,31.4711318 C84.8374925,31.1076443 84.9578507,30.8541159 85.0464478,30.7126213 C85.2541493,30.3806692 85.5316418,30.2122035 85.8797612,30.2122035 C86.1752239,30.2122035 86.4786269,30.4354413 86.790806,30.8773525 C86.9671642,31.1620014 87.1472836,31.4395963 87.3395224,31.7084775 C87.8414328,32.4354526 88.3454328,33.1620127 88.8494328,33.8898176 C89.6133731,34.649158 90.7521791,35.0279983 92.264597,35.0279983 C93.2203582,35.0279983 94.1840597,34.7275817 95.1565373,34.1275783 C96.0245373,33.478612 96.8946269,32.8230066 97.7613731,32.1586875 C98.0041791,32.1586875 98.144597,32.1736254 98.1792836,32.2051608 C98.2139701,32.238356 98.233194,32.3956183 98.233194,32.6802672" id="Fill-12" fill="#1A1918"></path>
                    <path d="M99.3498507,23.1806286 C98.8909851,23.1806286 98.4471642,22.9030337 97.9979104,22.3308313 C97.5728955,21.7856 97.3693731,21.3154729 97.3693731,20.8914041 C97.3693731,20.6021908 97.4558806,20.3362142 97.6284776,20.1034328 C97.7638806,19.9167098 98.0355224,19.693887 98.5453731,19.693887 C99.0894925,19.693887 99.5851343,19.9864197 100.020597,20.5627715 C100.425552,21.1038534 100.630328,21.6204538 100.630328,22.1009545 C100.630328,22.4681765 100.58394,22.6760615 100.469851,22.8208755 C100.255881,23.0702545 99.9027463,23.1806286 99.3498507,23.1806286 L99.3498507,23.1806286 Z M101.416,36.6043557 L101.393015,36.6031109 C100.795821,36.5383803 100.196955,36.4670106 99.6122985,36.3873421 C98.9407164,36.270329 98.5311642,36.0794565 98.308,35.7865088 C98.0463881,35.4636854 97.8520597,35.1421068 97.734209,34.8375408 C97.5624478,34.399779 97.472597,33.8325559 97.472597,33.1557886 L97.472597,31.3756956 C97.472597,30.763244 97.4809552,30.1126179 97.4976716,29.4445643 C97.4976716,28.8814906 97.482209,28.7586684 97.4801194,28.7387512 L97.472597,28.705556 L97.472597,28.6719459 C97.472597,28.2383335 97.5273433,27.8802402 97.6422687,27.576504 C97.7910448,27.1599042 98.1391642,26.9291975 98.6231045,26.9291975 C99.1755821,26.9291975 99.4764776,27.1848006 99.6315224,27.4005694 C99.834209,27.6831436 99.9299104,28.1694534 99.9299104,28.9337731 C99.9299104,29.1868865 99.918209,29.7777612 99.9027463,30.707642 C99.8847761,31.6250746 99.876,32.2898086 99.876,32.6802672 C99.876,33.8064147 100.013075,34.0541339 100.040657,34.0918934 C100.143881,34.2450063 100.481552,34.4952152 101.595284,34.4952152 C102.687701,34.4952152 103.800597,34.2387822 104.898448,33.735045 C105.880119,33.1379462 106.862209,32.5337934 107.848478,31.9221717 L107.943343,31.8615904 L108.481194,31.8615904 L108.51797,31.8678145 C108.875701,31.9346199 109.100537,32.2093102 109.100537,32.5852459 C109.100537,33.049149 108.782925,33.7035095 106.426746,35.0367121 C104.564955,36.0773818 102.887045,36.6043557 101.438149,36.6043557 L101.416,36.6043557 L101.416,36.6043557 Z" id="Fill-13" fill="#1A1918"></path>
                    <path d="M108.704776,32.5852459 C108.704776,33.0595225 107.88191,33.7632609 106.228239,34.6972911 C104.422866,35.7076702 102.824776,36.2134822 101.438149,36.2134822 C100.845552,36.1508262 100.255881,36.0794565 99.6641194,36.0010328 C99.1241791,35.9055966 98.7781493,35.7570481 98.6231045,35.5508228 C98.3794627,35.2504062 98.2043582,34.9653424 98.1011343,34.6972911 C97.9427463,34.3014382 97.8650149,33.7873274 97.8650149,33.1557886 L97.8650149,31.3756956 C97.8650149,30.7599245 97.8754627,30.118842 97.8913433,29.4549378 C97.8913433,29.0279645 97.8838209,28.7661373 97.8650149,28.6719459 C97.8650149,28.2918607 97.9134925,27.9723569 98.0104478,27.7105297 C98.1053134,27.4507772 98.3088358,27.3188262 98.6231045,27.3188262 C98.9344478,27.3188262 99.1663881,27.4238061 99.3118209,27.6287865 C99.4597612,27.8341818 99.5333134,28.2686241 99.5333134,28.9337731 C99.5333134,29.1860567 99.5282985,29.7736118 99.5078209,30.6993432 C99.4902687,31.6250746 99.4814925,32.2848293 99.4814925,32.6802672 C99.4814925,33.5495667 99.5608955,34.0960428 99.7167761,34.3172059 C99.9762985,34.6972911 100.602746,34.8856739 101.595284,34.8856739 C102.758746,34.8856739 103.921791,34.6176226 105.085254,34.0806901 C106.073194,33.478612 107.061552,32.8698949 108.055343,32.2532939 L108.444418,32.2532939 C108.620358,32.2848293 108.704776,32.3956183 108.704776,32.5852459 L108.704776,32.5852459 Z M100.235821,22.1009545 C100.235821,22.3544829 100.211582,22.51299 100.159761,22.5756459 C100.037313,22.7175555 99.7694328,22.789755 99.3498507,22.789755 C99.021791,22.789755 98.6749254,22.5557288 98.3088358,22.0893362 C97.9427463,21.6237734 97.7613731,21.2237711 97.7613731,20.8914041 C97.7613731,20.6864237 97.8236418,20.5013604 97.9427463,20.3341395 C98.0643582,20.1685784 98.2678806,20.0860054 98.5453731,20.0860054 C98.9616119,20.0860054 99.3469254,20.3233511 99.7021493,20.7959679 C100.060716,21.2714892 100.235821,21.7067614 100.235821,22.1009545 L100.235821,22.1009545 Z" id="Fill-14" fill="#1A1918"></path>
                    <path d="M110.476716,29.7043168 C110.317493,30.111788 110.189612,30.6333677 110.098925,31.2541181 C110.007403,31.8823374 109.959761,32.5064073 109.959761,33.1076555 C109.959761,33.3840056 110.064239,33.6113928 110.284896,33.8230123 C110.503881,34.0354616 110.804776,34.1391966 111.209731,34.1391966 C111.534448,34.1391966 111.870866,33.8794441 112.209373,33.367408 C112.579642,32.8018447 112.769373,32.2196837 112.769373,31.6362779 C112.769373,30.8835766 112.729672,30.2877226 112.657791,29.8636538 C112.592179,29.4993364 112.519463,29.2885469 112.458448,29.1682142 C112.067284,29.0487115 111.780179,28.9337731 111.58209,28.8204944 C111.366866,28.6968423 111.202209,28.5565925 111.088119,28.4059693 C111.042149,28.5337708 110.982806,28.6719459 110.909254,28.8204944 C110.755045,29.1304547 110.611701,29.4238173 110.476716,29.7043168 L110.476716,29.7043168 Z M111.261134,36.2973001 C110.356358,36.2973001 109.558985,36.0333982 108.894507,35.5138932 C108.207045,34.9823549 107.825075,34.3263346 107.755701,33.5707287 C107.693433,32.9234221 107.660836,32.3935436 107.660836,31.9914667 C107.660836,31.4101356 107.703045,30.887726 107.784119,30.4404206 C107.865194,30.0059783 107.99809,29.5138593 108.177373,28.975682 C108.314448,28.5619868 108.578149,28.1366732 108.985194,27.6769195 C109.445313,27.1599042 109.801791,26.9291975 110.141134,26.9291975 C110.503881,26.9291975 110.786806,27.0395715 110.96609,27.2412324 C111.006209,27.0960034 111.066388,26.966957 111.14203,26.8520186 C111.276179,26.6516025 111.551164,26.4067879 112.092358,26.4067879 C112.982507,26.4067879 113.502388,26.5291952 113.777791,26.8059603 L113.82209,26.8478692 L113.851761,26.9009815 C113.967522,27.126294 114.083701,27.3138469 114.203642,27.4698644 C114.454806,27.4947608 114.759881,27.5200722 115.131821,27.5474582 C115.549731,27.576504 115.904119,27.5922717 116.186627,27.5922717 L116.756239,27.5922717 C116.945134,27.5922717 117.129433,27.5848028 117.298269,27.5711098 L117.334209,27.5682052 C117.634687,27.5682052 118.559522,27.5682052 118.559522,28.2458024 C118.559522,28.7233984 118.315045,29.1051433 117.86997,29.3213271 C117.496358,29.4980916 117.04,29.5848141 116.473731,29.5848141 L115.063284,29.5848141 C115.113015,29.7565993 115.158567,29.9433223 115.199522,30.1441533 C115.304,30.6196747 115.355403,31.0341999 115.355403,31.3756956 C115.355403,32.4313032 114.998925,33.4806867 114.294746,34.4918957 C113.454746,35.6902427 112.434209,36.2973001 111.261134,36.2973001 L111.261134,36.2973001 Z" id="Fill-15" fill="#1A1918"></path>
                    <path d="M118.165015,28.2458024 C118.165015,28.5773395 118.011224,28.8175899 117.697791,28.9682131 C117.384776,29.1180065 116.976478,29.1931106 116.473731,29.1931106 L115.429373,29.1931106 L114.855582,29.1931106 C114.663761,29.1474672 114.535045,29.1138571 114.465254,29.0989192 C114.604418,29.398506 114.720597,29.7736118 114.816716,30.2246517 C114.911582,30.6761066 114.959224,31.0603411 114.959224,31.3756956 C114.959224,32.3557841 114.62991,33.3201049 113.969612,34.2699027 C113.205254,35.3611952 112.302149,35.9055966 111.261134,35.9055966 C110.442866,35.9055966 109.735343,35.6732302 109.137313,35.2072524 C108.53803,34.7392 108.205791,34.1840101 108.145612,33.533799 C108.082507,32.8856626 108.055343,32.3707219 108.055343,31.9914667 C108.055343,31.4238286 108.096299,30.929635 108.172358,30.5097156 C108.251343,30.0918709 108.375881,29.6204989 108.550985,29.0989192 C108.672179,28.7346018 108.915821,28.3495374 109.280657,27.936672 C109.646746,27.5262963 109.932597,27.3188262 110.141134,27.3188262 C110.572418,27.3188262 110.793075,27.5092837 110.793075,27.8897838 C110.793075,28.0789965 110.712836,28.3304502 110.556537,28.6466345 C110.400657,28.9653085 110.251881,29.2644803 110.11606,29.5495442 C109.938866,29.9935301 109.803881,30.5420809 109.710687,31.1985161 C109.614149,31.8541215 109.566507,32.4898097 109.566507,33.1076555 C109.566507,33.4869108 109.713194,33.8188629 110.009493,34.1035118 C110.303701,34.3881607 110.704478,34.5296553 111.209731,34.5296553 C111.676955,34.5296553 112.12203,34.2143008 112.537433,33.5811022 C112.952836,32.9508082 113.161791,32.3014269 113.161791,31.6362779 C113.161791,30.86034 113.122925,30.2487183 113.045612,29.7985082 C112.967881,29.3462235 112.859224,29.0279645 112.718806,28.8383369 C112.286687,28.7117801 111.972418,28.5922774 111.781433,28.4823183 C111.451284,28.2918607 111.285791,28.0789965 111.285791,27.8424806 C111.285791,27.5092837 111.34597,27.2540956 111.468,27.0719369 C111.590448,26.8885333 111.799403,26.7984913 112.092358,26.7984913 C112.841254,26.7984913 113.311821,26.8926827 113.502388,27.0823104 C113.657433,27.3818971 113.82209,27.6362554 113.997194,27.8424806 C114.290149,27.8740161 114.661672,27.9051366 115.104657,27.936672 C115.546388,27.9690374 115.907045,27.9848051 116.186627,27.9848051 L116.756239,27.9848051 C116.950149,27.9848051 117.14197,27.9752615 117.334209,27.9607385 C117.886687,27.9607385 118.165015,28.0561748 118.165015,28.2458024" id="Fill-16" fill="#1A1918"></path>
                    <path d="M129.763284,37.3653559 C128.572657,37.3653559 127.632776,37.059545 126.968299,36.4566371 C126.427522,35.9645181 125.965313,35.1661734 125.560358,34.0196939 C125.402388,33.5225956 125.250687,33.0217629 125.115284,32.5180257 C124.982388,32.1943724 124.852836,32.1943724 124.811881,32.1943724 C124.820239,32.196862 124.632597,32.259518 124.081791,32.8313054 C123.689373,33.2333824 123.228836,33.7885722 122.700179,34.4815222 C122.422687,34.8624372 122.216239,35.1392023 122.070806,35.3192863 C121.600239,35.8827749 121.179403,36.1549756 120.773612,36.1549756 C120.348597,36.1549756 119.773552,35.9699123 119.463463,35.085675 C119.384478,34.8553832 119.286269,34.3624344 119.147104,33.4885705 C119.012955,32.6636696 118.899284,31.8072333 118.803164,30.9441579 C118.707463,30.0665595 118.657731,29.3902072 118.657731,28.9337731 C118.657731,28.5503684 118.742985,28.2590805 118.916,28.0466311 C119.105731,27.8047211 119.450925,27.6885378 119.992119,27.6885378 C120.286328,27.6885378 120.68794,27.8308623 120.911522,28.5146836 C121.048597,28.9242295 121.115045,29.433361 121.115045,30.0246506 C121.115045,30.4918732 121.141373,30.887726 121.185672,31.1968564 C121.213254,31.3673968 121.279701,31.7022534 121.433493,32.3661576 C121.739403,31.9810932 122.106746,31.5462359 122.535522,31.0686399 C122.957612,30.6010024 123.407701,30.2092989 123.876179,29.8993387 C124.393134,29.5586729 124.832776,29.3943566 125.231463,29.3943566 C126.008776,29.3943566 126.637313,29.7648981 127.051881,30.4644871 C127.28591,30.8752778 127.525373,31.6122114 127.786985,32.7213463 C128.091642,34.0030963 128.284716,34.5213564 128.393373,34.7288265 C128.620299,35.168663 128.920776,35.3728135 129.346627,35.3728135 C129.91206,35.3728135 130.58406,35.2628544 131.333791,35.043766 C132.100657,34.8209432 132.927284,34.5068335 133.791104,34.1043416 C134.349015,33.8512282 135.303522,33.1893987 136.630388,32.1379405 C137.474985,31.4657376 137.690209,31.4122103 137.865313,31.4122103 C138.079284,31.4122103 138.481313,31.4122103 138.628836,31.719266 C138.684,31.8375239 138.703642,31.9956161 138.703642,32.3242486 C138.703642,32.7703092 138.295761,33.2939636 137.333731,34.074466 C136.579821,34.6972911 135.780358,35.2458419 134.955403,35.7026909 C132.979104,36.8051868 131.231403,37.3653559 129.763284,37.3653559" id="Fill-17" fill="#1A1918"></path>
                    <path d="M138.308299,32.3242486 C138.308299,32.6259101 137.900418,33.1076555 137.08591,33.7715597 C136.338269,34.3881607 135.566388,34.9172093 134.765672,35.3611952 C132.837851,36.4367199 131.169134,36.9748973 129.763284,36.9748973 C128.666269,36.9748973 127.827104,36.7056011 127.235343,36.1674238 C126.74597,35.7234379 126.312597,34.9653424 125.931881,33.8898176 C125.773493,33.3997734 125.62597,32.9022602 125.486388,32.3956183 C125.330507,32.0018402 125.109015,31.8030839 124.811881,31.8030839 C124.619642,31.8030839 124.282388,32.0561973 123.795104,32.5611794 C123.395164,32.9723851 122.925015,33.533799 122.385075,34.2450063 C122.108418,34.6238467 121.90197,34.9026864 121.760299,35.0765463 C121.379582,35.5342252 121.050687,35.7632722 120.773612,35.7632722 C120.337731,35.7632722 120.023463,35.4952209 119.835821,34.9570436 C119.76394,34.7516482 119.664896,34.2408569 119.53409,33.4284042 C119.403284,32.6134619 119.290448,31.7715484 119.192239,30.9001742 C119.099463,30.0308747 119.050985,29.3756843 119.050985,28.9337731 C119.050985,28.6466345 119.105731,28.4341852 119.224,28.2918607 C119.336,28.1503662 119.588836,28.0789965 119.992119,28.0789965 C120.232418,28.0789965 120.415881,28.2657195 120.536239,28.636261 C120.660776,29.0080474 120.719701,29.4698757 120.719701,30.0246506 C120.719701,30.513865 120.744776,30.9254856 120.797433,31.2561928 C120.848418,31.5893897 120.99803,32.2615927 121.238328,33.2732166 C121.606507,32.7516369 122.136,32.1043304 122.828896,31.3283924 C123.230925,30.8856513 123.651343,30.5180144 124.094328,30.2246517 C124.536478,29.9346086 124.915104,29.78606 125.231463,29.78606 C125.869612,29.78606 126.367343,30.0794227 126.713373,30.6636584 C126.921075,31.0279758 127.152179,31.7433325 127.401672,32.8101435 C127.656179,33.8781993 127.870149,34.5777883 128.043164,34.9109852 C128.337373,35.4786233 128.772,35.7632722 129.346627,35.7632722 C129.953015,35.7632722 130.654687,35.6499935 131.444537,35.4197018 C132.233552,35.18941 133.070627,34.8703211 133.957851,34.4607752 C134.547522,34.1902342 135.52209,33.5180313 136.87403,32.4429215 C137.413134,32.016778 137.744119,31.8030839 137.865313,31.8030839 C138.108955,31.8030839 138.24394,31.830055 138.271522,31.8869018 C138.297851,31.9420888 138.308299,32.0869029 138.308299,32.3242486" id="Fill-18" fill="#1A1918"></path>
                    <path d="M154.802388,36.4860978 C154.146269,36.4860978 153.52191,36.3694996 152.948955,36.138378 C152.355522,35.8985426 151.866149,35.5433539 151.499224,35.0815256 C151.261851,34.7997813 151.031164,34.4732234 150.816776,34.1130554 C150.568955,33.7014348 150.447343,33.3653333 150.447343,33.083589 C150.447343,32.1263222 151.128955,32.0520479 151.338746,32.0520479 L151.370507,32.0528778 C151.817672,32.0918822 152.105612,32.5254946 152.282806,32.8499777 C152.389791,33.0781948 152.513493,33.3001877 152.652657,33.533799 C152.736239,33.6678247 152.923881,33.8889877 153.366866,34.1819354 C153.791881,34.4607752 154.04597,34.5192817 154.180119,34.5192817 L154.187224,34.5192817 C154.158806,34.4188662 154.08609,34.2271639 153.872955,33.9006061 C153.614687,33.4972843 153.359761,33.1159543 153.121134,32.7528817 L153.104836,32.7254957 C152.990328,32.5192705 152.707403,32.0939569 152.26609,31.4574388 C151.622925,30.527558 151.30991,29.7337776 151.30991,29.0279645 C151.30991,28.1105319 151.547701,27.3105274 152.02203,26.6549221 C152.524358,25.9553331 153.265731,25.5993144 154.229851,25.5993144 C155.114567,25.5993144 155.881015,25.8424693 156.505373,26.3221401 C157.090866,26.7619766 157.39009,27.2437221 157.39009,27.7474593 C157.39009,28.1943498 157.351642,28.4582517 157.270149,28.629207 C157.148955,28.8831504 156.872716,29.0155163 156.447284,29.0155163 C156.058627,29.0155163 155.845493,28.9744372 155.69797,28.8740217 C155.589313,28.7985026 155.466866,28.6653068 155.293851,28.428791 C155.08197,28.1503662 154.947821,28.0184152 154.868836,27.9557593 C154.7,27.8246382 154.51403,27.7586627 154.308418,27.7586627 C154.015463,27.7586627 153.913075,27.8781655 153.852896,27.9955935 C153.725433,28.2404082 153.661075,28.588128 153.661075,29.0279645 C153.661075,29.2707044 153.735881,29.5702912 153.887582,29.9159363 C154.04597,30.2761043 154.383642,30.8101322 154.889731,31.5034971 C155.253731,32.0080643 155.618567,32.5055774 155.979224,32.993547 C156.400896,33.6458328 156.603582,34.2595292 156.603582,34.8396155 C156.603582,35.4553866 156.434746,35.8972978 156.097493,36.1487515 C155.791582,36.3757237 155.368239,36.4860978 154.802388,36.4860978" id="Fill-19" fill="#1A1918"></path>
                    <path d="M156.994746,27.7474593 C156.994746,28.1117767 156.970507,28.3495374 156.916179,28.4582517 C156.862269,28.5690407 156.70597,28.6238128 156.447284,28.6238128 C156.168119,28.6238128 155.993015,28.6005762 155.92406,28.553273 C155.855522,28.5043101 155.751463,28.387297 155.611881,28.1976693 C155.422149,27.9453858 155.25791,27.7628121 155.118746,27.6499484 C154.873015,27.4615656 154.60597,27.3682041 154.308418,27.3682041 C153.925612,27.3682041 153.656896,27.5179975 153.501015,27.8175842 C153.345134,28.1180008 153.265731,28.5209077 153.265731,29.0279645 C153.265731,29.3283811 153.353075,29.6761009 153.529433,30.0711239 C153.70203,30.4665618 154.050149,31.019677 154.569194,31.7317142 C154.932776,32.238356 155.302209,32.7350393 155.663701,33.2250836 C156.028537,33.7947963 156.212418,34.3329736 156.212418,34.8396155 C156.212418,35.3300747 156.095403,35.6616118 155.860119,35.8346419 C155.627343,36.0085018 155.274627,36.0964691 154.802388,36.0964691 C154.196,36.0964691 153.625552,35.9894145 153.098985,35.7757204 C152.567403,35.5624412 152.136119,35.2504062 151.808896,34.8396155 C151.580299,34.5694895 151.366328,34.2616039 151.157373,33.9138841 C150.945075,33.5665793 150.843104,33.2898142 150.843104,33.083589 C150.843104,32.6574455 151.009851,32.4429215 151.338746,32.4429215 C151.528896,32.4586892 151.72991,32.6574455 151.934687,33.0367008 C152.041254,33.2582788 152.167881,33.4910602 152.315403,33.7358748 C152.461672,33.9811044 152.74,34.2387822 153.148299,34.5068335 C153.556597,34.7757147 153.900537,34.9109852 154.180119,34.9109852 C154.456358,34.9109852 154.595522,34.8072502 154.595522,34.6010249 C154.595522,34.3956296 154.466806,34.0910636 154.204358,33.6877418 C153.943582,33.2856648 153.690746,32.9022602 153.452119,32.5379428 C153.32591,32.3159498 153.042149,31.8815075 152.588299,31.2354458 C151.996537,30.3806692 151.703582,29.6437356 151.703582,29.0279645 C151.703582,28.1902004 151.915881,27.4740138 152.340478,26.8810644 C152.768,26.2877001 153.398627,25.9910179 154.229851,25.9910179 C155.028896,25.9910179 155.70591,26.2059569 156.264239,26.6321004 C156.749015,26.9964178 156.994746,27.3682041 156.994746,27.7474593" id="Fill-20" fill="#1A1918"></path>
                    <path d="M170.646627,36.5591273 C169.016358,36.5591273 167.620955,36.2118224 166.50806,35.5275862 C165.768776,35.0794509 165.03994,34.2877452 164.287701,33.1159543 C163.97803,33.5777827 163.621134,34.0209387 163.221612,34.4416879 C162.436776,35.2607797 161.776478,35.6566326 161.187224,35.6566326 C160.381493,35.6566326 159.752955,35.2545556 159.375164,34.489821 C159.296179,34.3246748 159.152836,33.9371208 158.774209,32.41844 L158.77003,32.3997677 L158.76794,32.3810954 C158.742866,32.2230032 158.706925,31.8354492 158.657194,30.3076397 C158.623343,29.252862 158.605791,28.2466323 158.605791,27.3188262 C158.605791,26.5333446 158.586567,25.5681939 158.541851,24.3690171 C158.51803,23.7175611 158.475821,22.6071814 158.475821,22.5046912 C158.475821,22.1822827 158.454507,21.9071774 158.405194,21.6855994 C158.163642,20.4748042 158.163642,20.4748042 158.163642,20.4175425 C158.163642,20.2050932 158.238448,19.8893237 158.590328,19.5951312 C158.853194,19.3781175 159.131522,19.2677435 159.417373,19.2677435 C159.689433,19.2677435 159.958567,19.4075783 160.23397,19.6963766 C160.477612,19.9474154 160.64603,20.2212758 160.731284,20.5092443 C160.787284,20.6847639 160.85791,21.1055132 160.906388,22.7432817 C160.938985,23.9146576 160.956537,25.2715118 160.956537,26.8926827 C160.956537,28.7806602 161.014209,30.3619969 161.124955,31.5893897 C161.214806,32.55703 161.330567,32.9329658 161.393672,33.0744603 C161.510269,33.0304767 161.710448,32.9043349 162.005493,32.550391 C162.278806,32.2259078 162.530806,31.8101378 162.759821,31.31055 C162.926149,30.922166 163.050687,30.6657331 163.144716,30.5097156 C163.501194,29.9412476 163.980119,29.8217449 164.317373,29.8217449 C164.752836,29.8217449 165.154866,30.0939456 165.550627,30.6532848 C165.731582,30.950382 165.914209,31.2225827 166.097672,31.4827501 C166.595821,32.2030861 167.093552,32.9213474 167.589194,33.6387789 C168.272478,34.3014382 169.319761,34.6375397 170.702627,34.6375397 C171.572716,34.6375397 172.46997,34.3557953 173.371821,33.8030951 C174.230209,33.159938 175.096119,32.508897 175.956597,31.8491422 L176.063164,31.767399 L176.198149,31.767399 C176.54209,31.767399 176.741433,31.7893908 176.879761,31.9180223 C177.035642,32.0607617 177.062388,32.2678168 177.062388,32.6802672 L177.059045,32.7159521 C177.027284,33.0960372 176.751881,33.6562063 174.967403,34.919284 C173.447881,36.0060121 171.995642,36.5591273 170.646627,36.5591273" id="Fill-21" fill="#1A1918"></path>
                    <path d="M176.668716,32.6802672 C176.63403,33.0752902 175.988358,33.7172025 174.738806,34.6010249 C173.276955,35.6462591 171.916239,36.1674238 170.646627,36.1674238 C169.084896,36.1674238 167.772657,35.8429407 166.712836,35.1956341 C165.933433,34.7180381 165.123104,33.7798585 164.290209,32.3707219 C163.924119,33.0051653 163.473612,33.6059986 162.934925,34.1757113 C162.238687,34.9026864 161.655284,35.2649291 161.187224,35.2649291 C160.526925,35.2649291 160.041731,34.9495746 159.729552,34.3172059 C159.622985,34.0960428 159.433254,33.430064 159.157015,32.3242486 C159.123164,32.0869029 159.088478,31.4113804 159.054627,30.2951915 C159.015761,29.1819073 159.001134,28.1902004 159.001134,27.3188262 C159.001134,26.5146723 158.975642,25.526285 158.932597,24.355324 C158.88997,23.185193 158.871164,22.5673471 158.871164,22.5046912 C158.871164,22.1573863 158.842746,21.8557249 158.79009,21.6042712 C158.633791,20.8287481 158.556896,20.4337252 158.556896,20.4175425 C158.556896,20.227085 158.653015,20.0552998 158.842746,19.8955479 C159.035821,19.7366258 159.223463,19.6582021 159.417373,19.6582021 C159.571582,19.6582021 159.750866,19.7615222 159.952299,19.9685773 C160.148299,20.1723129 160.285373,20.3909863 160.35391,20.6196183 C160.424537,20.8486653 160.477612,21.5594576 160.510209,22.7536553 C160.548239,23.9486827 160.562866,25.3271137 160.562866,26.8926827 C160.562866,28.8059715 160.620955,30.3831588 160.731284,31.6250746 C160.847881,32.8665753 161.035522,33.4869108 161.291701,33.4869108 C161.586746,33.4869108 161.926507,33.2582788 162.311821,32.7976953 C162.603522,32.4512203 162.874746,32.0093091 163.115881,31.4711318 C163.272597,31.1076443 163.394627,30.8541159 163.48197,30.7126213 C163.689254,30.3806692 163.969254,30.2122035 164.317373,30.2122035 C164.612836,30.2122035 164.915403,30.4354413 165.227582,30.8773525 C165.400597,31.1620014 165.583224,31.4395963 165.775045,31.7084775 C166.279045,32.4354526 166.781373,33.1620127 167.287463,33.8898176 C168.050985,34.649158 169.190209,35.0279983 170.702627,35.0279983 C171.655881,35.0279983 172.618746,34.7275817 173.593313,34.1275783 C174.459224,33.478612 175.330149,32.8230066 176.198149,32.1586875 C176.443881,32.1586875 176.580955,32.1736254 176.614806,32.2051608 C176.651582,32.238356 176.668716,32.3956183 176.668716,32.6802672" id="Fill-22" fill="#1A1918"></path>
                    <path d="M178.774985,29.7055617 C178.614507,30.1151075 178.489134,30.6341976 178.399701,31.2541181 C178.305672,31.8906362 178.25803,32.5126314 178.25803,33.1076555 C178.25803,33.3777815 178.362507,33.6122227 178.582746,33.8238421 C178.803403,34.0354616 179.10597,34.1391966 179.505493,34.1391966 C179.832716,34.1391966 180.167881,33.880274 180.506806,33.367408 C180.87791,32.8018447 181.06806,32.2205136 181.06806,31.6362779 C181.06806,30.8918754 181.03003,30.2951915 180.954806,29.8636538 C180.892955,29.5034858 180.822328,29.2926963 180.760896,29.1702889 C180.371821,29.0487115 180.078448,28.934603 179.880358,28.8204944 C179.66597,28.6968423 179.501313,28.5565925 179.386388,28.4059693 C179.341254,28.5337708 179.279821,28.6719459 179.207104,28.8217393 L178.774985,29.7055617 L178.774985,29.7055617 Z M179.559403,36.2973001 C178.655881,36.2973001 177.860597,36.0333982 177.19194,35.5138932 C176.508239,34.9798653 176.123343,34.3263346 176.053134,33.5707287 C175.990448,32.9213474 175.961194,32.3902241 175.961194,31.9914667 C175.961194,31.3985173 176.002149,30.8752778 176.085731,30.437516 C176.164716,30.0122024 176.294269,29.5200834 176.475642,28.9777567 C176.610627,28.5619868 176.877672,28.1366732 177.283463,27.6781643 C177.734806,27.1661283 178.102149,26.9291975 178.439403,26.9291975 C178.803403,26.9291975 179.084657,27.0383267 179.264358,27.2412324 C179.305313,27.0968333 179.363403,26.9690317 179.438209,26.8549232 C179.57403,26.6507727 179.852776,26.4067879 180.394806,26.4067879 C181.281612,26.4067879 181.800657,26.5291952 182.078985,26.8038856 L182.123701,26.8478692 L182.151701,26.9022264 C182.262866,27.1188251 182.38197,27.3092826 182.50191,27.4698644 C182.754328,27.4947608 183.059821,27.5200722 183.431343,27.5474582 C183.85009,27.576504 184.205313,27.5922717 184.486985,27.5922717 L185.059522,27.5922717 C185.241313,27.5922717 185.422269,27.5848028 185.598627,27.5711098 L185.63206,27.5682052 C185.936299,27.5682052 186.859045,27.5682052 186.859045,28.2458024 C186.859045,28.7304524 186.619582,29.1014089 186.169493,29.3213271 C185.803403,29.4960169 185.330746,29.5848141 184.769493,29.5848141 L183.362806,29.5848141 C183.414627,29.7611636 183.459761,29.9474717 183.50197,30.1449832 C183.604358,30.6321229 183.653672,31.0341999 183.653672,31.3756956 C183.653672,32.4292285 183.299284,33.4761223 182.59594,34.4918957 C181.756358,35.6902427 180.732478,36.2973001 179.559403,36.2973001 L179.559403,36.2973001 Z" id="Fill-23" fill="#1A1918"></path>
                    <path d="M186.463701,28.2458024 C186.463701,28.5773395 186.309493,28.8175899 185.998149,28.9682131 C185.683881,29.1180065 185.27391,29.1931106 184.769493,29.1931106 L183.728896,29.1931106 L183.15594,29.1931106 C182.966209,29.1474672 182.833313,29.1138571 182.764776,29.0989192 C182.90394,29.398506 183.020955,29.7736118 183.117075,30.2246517 C183.211522,30.6761066 183.262507,31.0603411 183.262507,31.3756956 C183.262507,32.3557841 182.929433,33.3201049 182.270806,34.2699027 C181.508537,35.3611952 180.602507,35.9055966 179.559403,35.9055966 C178.743224,35.9055966 178.035701,35.6732302 177.435582,35.2072524 C176.837134,34.7392 176.508239,34.1840101 176.446388,33.533799 C176.384119,32.8856626 176.354448,32.3707219 176.354448,31.9914667 C176.354448,31.4238286 176.394567,30.929635 176.469373,30.5097156 C176.548358,30.0918709 176.674985,29.6204989 176.848,29.0989192 C176.969194,28.7346018 177.212836,28.3495374 177.578925,27.936672 C177.943761,27.5262963 178.232537,27.3188262 178.439403,27.3188262 C178.87403,27.3188262 179.091343,27.5092837 179.091343,27.8897838 C179.091343,28.0789965 179.012358,28.3304502 178.85397,28.6466345 C178.69809,28.9653085 178.551403,29.2644803 178.412239,29.5495442 C178.239224,29.9935301 178.106328,30.5420809 178.010209,31.1985161 C177.912418,31.8541215 177.862687,32.4898097 177.862687,33.1076555 C177.862687,33.4869108 178.012299,33.8188629 178.307761,34.1035118 C178.60406,34.3881607 179.003582,34.5296553 179.505493,34.5296553 C179.97606,34.5296553 180.420299,34.2143008 180.837791,33.5811022 C181.254448,32.9508082 181.463403,32.3014269 181.463403,31.6362779 C181.463403,30.86034 181.420776,30.2487183 181.344299,29.7985082 C181.266985,29.3462235 181.159582,29.0279645 181.019164,28.8383369 C180.584537,28.7117801 180.271522,28.5922774 180.078448,28.4823183 C179.749134,28.2918607 179.582806,28.0789965 179.582806,27.8424806 C179.582806,27.5092837 179.647164,27.2540956 179.767104,27.0719369 C179.886209,26.8885333 180.096418,26.7984913 180.394806,26.7984913 C181.140358,26.7984913 181.608418,26.8926827 181.800657,27.0823104 C181.954866,27.3818971 182.123701,27.6362554 182.296299,27.8424806 C182.591761,27.8740161 182.960776,27.9051366 183.399582,27.936672 C183.84591,27.9690374 184.207403,27.9848051 184.486985,27.9848051 L185.059522,27.9848051 C185.247582,27.9848051 185.440239,27.9752615 185.63206,27.9607385 C186.187881,27.9607385 186.463701,28.0561748 186.463701,28.2458024" id="Fill-24" fill="#1A1918"></path>
                    <path d="M189.41206,31.5956138 L189.457612,33.8346306 C189.784418,33.8010204 190.105373,33.7255013 190.418806,33.6072434 C190.846746,33.4470765 191.171463,33.2541294 191.38,33.0387755 C191.594388,32.8163676 191.750269,32.5661587 191.854746,32.2752857 C191.961313,31.9810932 192.013134,31.6458216 192.013134,31.2802593 C192.013134,30.9611704 191.97594,30.6823307 191.902388,30.4499642 C191.771582,30.0595056 191.542567,29.7503752 191.202806,29.5138593 C190.995104,29.3669705 190.523701,29.197675 189.457612,29.1640648 L189.41206,31.5956138 L189.41206,31.5956138 Z M187.298687,45.6434109 C186.944299,45.6434109 186.568179,45.4226627 186.568179,44.8006675 L186.568179,44.4707901 C186.568179,44.1965147 186.602866,43.8164296 186.675582,43.3102027 C186.744119,42.829702 186.831881,42.1711921 186.93594,41.3363326 C187.036239,40.5101869 187.106866,39.6072772 187.138627,38.6554047 C187.175403,37.6931586 187.192119,36.5865133 187.192119,35.3611952 L187.138627,32.1171935 L187.061313,28.5138537 C187.061313,27.9607385 187.175403,27.5661305 187.406507,27.3022286 C187.658507,27.0142602 188.100239,26.8810644 188.810269,26.8810644 C190.480657,26.8810644 191.662925,27.1022275 192.427701,27.5545122 C193.033672,27.9097009 193.527642,28.5209077 193.891224,29.3736096 C194.18794,30.0678044 194.335463,30.6931191 194.335463,31.2354458 C194.335463,31.8250757 194.194209,32.4437514 193.916716,33.0761201 C193.630866,33.7118083 193.262687,34.2279938 192.823045,34.6126433 C192.224179,35.1226047 191.617791,35.4682498 191.019761,35.6416947 C190.538746,35.77821 189.997552,35.861613 189.408299,35.8869243 C189.399522,36.5529032 189.358149,37.4429497 189.295045,38.5383915 C189.218149,39.8579011 189.108657,41.2014771 188.970328,42.5288705 C188.775164,44.3371794 188.651881,44.8085514 188.56203,45.0147766 C188.435403,45.3010853 188.117373,45.6434109 187.298687,45.6434109 L187.298687,45.6434109 Z" id="Fill-25" fill="#1A1918"></path>
                    <path d="M192.408478,31.2802593 C192.408478,30.9171868 192.365433,30.6010024 192.27809,30.3325362 C192.119701,29.8574297 191.83803,29.4781745 191.429731,29.1931106 C191.021851,28.9084617 190.234925,28.7661373 189.072716,28.7661373 L189.018806,31.5893897 L189.072716,34.2450063 C189.576716,34.2450063 190.070687,34.1549643 190.55797,33.9723907 C191.045254,33.790232 191.413015,33.5707287 191.667104,33.3084865 C191.917015,33.049149 192.102985,32.7483174 192.226269,32.4059918 C192.348716,32.0678156 192.408478,31.6931247 192.408478,31.2802593 L192.408478,31.2802593 Z M193.944299,31.2354458 C193.944299,31.7715484 193.812657,32.3337922 193.55397,32.9192727 C193.292358,33.5014337 192.961373,33.9694861 192.564776,34.3172059 C192.006448,34.7914825 191.455224,35.1089116 190.905672,35.2649291 C190.361552,35.4230213 189.733015,35.5035197 189.018806,35.5035197 C189.018806,36.1823617 188.980776,37.1865167 188.904299,38.5151549 C188.822806,39.8429632 188.716239,41.1691118 188.574567,42.4882063 C188.437493,43.8077159 188.312119,44.6002514 188.198448,44.8600039 C188.085612,45.1205863 187.78597,45.2529522 187.298687,45.2529522 C187.075104,45.2529522 186.958925,45.101914 186.958925,44.8006675 L186.958925,44.4707901 C186.958925,44.2164319 186.996119,43.8475501 187.064657,43.3670495 C187.13194,42.8844741 187.221791,42.2222297 187.327104,41.3852956 C187.429493,40.5471166 187.49803,39.6421322 187.53397,38.6690977 C187.568657,37.6964781 187.585373,36.5948121 187.585373,35.3611952 L187.53397,32.1109694 L187.454985,28.5043101 C187.454985,28.0644736 187.53606,27.7474593 187.702806,27.5565869 C187.869134,27.3682041 188.239821,27.271938 188.810269,27.271938 C190.390806,27.271938 191.53003,27.4781632 192.226269,27.8897838 C192.762866,28.2047233 193.198746,28.7511994 193.527642,29.5263075 C193.80597,30.174444 193.944299,30.7433268 193.944299,31.2354458 L193.944299,31.2354458 Z" id="Fill-26" fill="#1A1918"></path>
                </g>
            </g>
        </g>
    </g>
</svg>