<?xml version="1.0" encoding="UTF-8"?>
<svg width="185px" height="53px" viewBox="0 0 185 53" version="1.1" xmlns="http://www.w3.org/2000/svg" xmlns:xlink="http://www.w3.org/1999/xlink">
    <!-- Generator: Sketch 39.1 (31720) - http://www.bohemiancoding.com/sketch -->
    <title>new-facebook-logo-seeklogo.net</title>
    <desc>Created with Sketch.</desc>
    <defs></defs>
    <g id="Page-1" stroke="none" stroke-width="1" fill="none" fill-rule="evenodd">
        <g id="01-UF_mainPage" transform="translate(-623.000000, -3315.000000)">
            <g id="new-facebook-logo-seeklogo.net" transform="translate(623.000000, 3315.000000)">
                <polygon id="Fill-1" fill="#395185" points="0.046835443 53 184.781435 53 184.781435 0.749014706 0.046835443 0.749014706"></polygon>
                <path d="M98.7650211,32.4196324 C98.5651899,33.8334853 97.4380169,34.5747059 96.0993038,34.4710441 C95.765211,34.4445441 95.4631224,34.3759559 95.1914768,34.2699559 C94.1127004,33.6518824 93.7864135,32.6168235 93.691962,31.9667941 C93.6911814,31.9675735 93.6896203,31.9675735 93.6896203,31.9675735 C93.6162447,30.9621324 93.5366245,28.8592794 94.027616,27.86475 C94.4452321,27.1032647 95.1727426,26.6886176 96.1383333,26.6566618 C97.5098312,26.6114559 98.5480169,27.2911029 98.7517511,28.6807941 C98.9328481,29.90525 98.9414346,31.1959559 98.7650211,32.4196324 L98.7650211,32.4196324 Z M98.084346,23.1329412 C96.3647046,22.949 94.8761181,23.4696471 93.6178059,24.9801471 L93.6178059,15.7152794 L89.0630591,16.2663235 L89.0630591,37.7102794 L93.6178059,37.7102794 L93.6178059,36.4375 C94.2321308,36.8755294 94.8300633,37.4024118 95.5294726,37.6526029 C98.183481,38.6019265 101.682869,37.8279706 102.907616,34.2832059 C103.693671,32.0088824 103.673376,29.6776618 103.081688,27.3783971 C102.425211,24.8234853 100.722743,23.4135294 98.084346,23.1329412 L98.084346,23.1329412 Z" id="Fill-3" fill="#FFFFFF"></path>
                <path d="M114.421329,32.1897059 C114.406498,32.2840147 114.390886,32.3775441 114.36903,32.4702941 C114.066941,33.8124412 113.090422,34.5388529 111.789177,34.4780588 C110.389578,34.4141471 109.430232,33.5973235 109.29519,32.2013971 C109.197616,31.1819265 109.18981,30.1398529 109.274895,29.1196029 C109.407595,27.5085588 110.416899,26.6278235 111.929684,26.6574412 C113.173945,26.6816029 114.059916,27.3854118 114.376055,28.5794706 C114.662532,29.7805441 114.44943,31.9161324 114.421329,32.1897059 L114.421329,32.1897059 Z M114.228523,23.3979412 C112.646266,22.9747206 111.046835,22.9801765 109.4677,23.4002794 C107.102511,24.0284853 105.517131,25.5233971 105.006624,27.8998235 C104.727954,29.1967647 104.672532,30.5755441 104.745907,31.906 C104.914515,34.9480441 106.798861,37.1148088 109.722954,37.7874412 C109.763544,37.7975735 109.806477,37.8045882 109.848629,37.8139412 L109.847068,37.8139412 C109.847068,37.8139412 109.855654,37.8155 109.868924,37.8186176 C109.981329,37.8412206 110.093734,37.8614853 110.20692,37.8786324 C110.244388,37.8825294 110.283418,37.8856471 110.320105,37.8887647 L110.323228,37.8887647 C110.465295,37.9152647 110.635464,37.93475 110.814219,37.9487794 C111.387173,38.0087941 112.115464,38.0524412 112.723544,37.9807353 C112.727447,37.9807353 112.729789,37.9799559 112.732911,37.9791765 C112.763354,37.9791765 112.795359,37.9791765 112.825802,37.9768382 C115.845127,37.8201765 118.13616,35.9191912 118.805127,33.0026324 C119.172004,31.4032794 119.172004,29.7961324 118.816835,28.196 C118.261835,25.6839559 116.735781,24.0674559 114.228523,23.3979412 L114.228523,23.3979412 Z" id="Fill-4" fill="#FFFFFF"></path>
                <path d="M45.845654,23.3223382 L42.5944937,23.3223382 L42.5944937,21.1633676 C42.8317932,19.1228676 46.2078481,19.5102353 46.2078481,19.5102353 L46.2094093,19.3707206 L46.2078481,19.3551324 L46.2078481,16.0028824 L46.2078481,16.0021029 L46.2047257,16.0021029 C46.0884177,15.9740441 39.4885232,14.4105441 38.1779114,19.4260588 C38.1779114,19.4268382 38.1779114,19.4283971 38.1763502,19.4299559 C38.1740084,19.4408676 38.1708861,19.4517794 38.1677637,19.4626912 C37.9616878,20.0893382 37.9757384,22.9614706 37.9788608,23.3223382 L35.1609283,23.3223382 L35.1609283,27.1625 L38.1537131,27.1625 L38.1537131,37.6073971 L42.5117511,37.6073971 L42.5117511,27.1625 L45.8448734,27.1625 L46.2203376,23.3223382 L45.845654,23.3223382" id="Fill-5" fill="#FFFFFF"></path>
                <path d="M55.8645359,32.3993676 C55.7224684,33.7290441 54.6444726,34.5279412 53.3697679,34.4780588 C52.0646203,34.4273971 51.2005063,33.7290441 50.9179325,32.4780882 C50.5799367,30.6986912 50.9756962,28.5841471 51.0092616,28.4126765 C51.3503797,27.2186176 52.2207384,26.6270441 53.4977848,26.6566618 C54.7514135,26.6855 55.7177848,27.4259412 55.8590717,28.7228824 C55.9917722,29.9364265 55.9948945,31.1850441 55.8645359,32.3993676 L55.8645359,32.3993676 Z M56.2384388,25.1594118 C56.1853586,25.1001765 56.1322785,25.0432794 56.0870042,24.9957353 C56.0791983,24.9879412 56.0737342,24.9817059 56.0667089,24.9746912 C56.003481,24.9084412 55.9589873,24.8647941 55.9589873,24.8647941 C54.9325105,23.8227206 54.5453376,23.5639559 53.7413291,23.3270147 C50.6501899,22.4182206 47.6410127,24.0339412 46.6879114,27.1391176 C46.1024684,29.0478971 46.0938819,31.0120147 46.4373418,32.9441765 C47.178903,37.1288382 50.2958017,38.5302206 53.6187764,37.8396618 C54.6382278,37.6268824 55.3954008,36.9932206 56.0987131,36.1109265 C56.0987131,36.1109265 56.1619409,36.0337647 56.2392194,35.8833382 L56.2392194,37.7243088 L60.4903165,37.7243088 L60.4903165,23.3387059 L56.2392194,23.3387059 L56.2392194,25.1594118 L56.2384388,25.1594118 L56.2384388,25.1594118 Z" id="Fill-6" fill="#FFFFFF"></path>
                <path d="M73.4746624,36.6931471 C73.277173,35.9729706 73.0531435,35.2621471 72.8353586,34.5754853 L72.6308439,33.8124412 C72.6308439,33.8124412 67.3025316,36.3665735 66.4712025,31.5131765 C66.3947046,30.7119412 66.4181224,29.8857647 66.5281857,29.0954412 C66.7358228,27.6036471 67.6467722,26.80475 69.0971097,26.6675735 C69.5873207,26.6208088 70.0970464,26.6441912 70.5817932,26.7268088 C71.242173,26.8374853 71.8869409,27.0362353 72.6097679,27.2147206 C72.8611181,26.447 73.1179325,25.6878529 73.3567932,24.92325 C73.3942616,24.804 73.4262658,24.7003382 73.4504641,24.6075882 L73.4512447,24.6075882 L73.5706751,24.1485147 C73.5410127,24.0877206 73.4684177,24.0238088 73.3708439,23.9622353 C73.3708439,23.9622353 73.3708439,23.9622353 73.3708439,23.9630147 C73.2482911,23.8609118 73.0398734,23.7751765 72.7135865,23.6567059 C72.5832278,23.6091618 72.4528692,23.5662941 72.32173,23.5257647 C72.2046414,23.4883529 72.1281435,23.4665294 72.1281435,23.4665294 L72.1289241,23.4665294 C70.7285443,23.0666912 69.2922574,23.0362941 67.8317722,23.1898382 C64.7546835,23.5140735 62.6666034,25.3269853 62.0874051,28.3199265 C61.7829747,29.8951176 61.7970253,31.4890147 62.1459494,33.0688824 C62.6689451,35.4343971 64.1052321,36.9628235 66.4391983,37.6455882 C67.9629114,38.0914118 69.5240928,38.1140147 71.0766878,37.8723971 C71.7300422,37.7702941 72.6667511,37.4320294 73.3388397,37.1911912 L73.5948734,37.1015588 L73.4738819,36.6923676 L73.4746624,36.6931471" id="Fill-7" fill="#FFFFFF"></path>
                <path d="M83.404557,29.1040147 L78.4821519,29.1040147 C78.5079114,28.1266324 78.6304641,27.2178382 79.5008228,26.6644559 C80.4242616,26.0783382 81.4452743,26.0565147 82.3960338,26.5818382 C83.3569409,27.1118382 83.4318776,28.0689559 83.404557,29.1040147 L83.404557,29.1040147 Z M87.5018776,31.0657941 C87.4815823,30.0697059 87.4948523,29.0689412 87.3535654,28.09 C86.9648312,25.4064853 85.3287131,23.7089265 82.6825105,23.2646618 C81.6724262,23.0963088 80.6037975,23.1189118 79.5781013,23.2163382 C76.7695359,23.4836765 74.6377426,25.2303382 74.2006118,27.8592941 C73.935211,29.4539706 73.900865,31.1468529 74.1155274,32.7477647 C74.4394726,35.1577059 75.6142616,36.6915882 77.6469198,37.4289118 L77.6477004,37.4289118 C77.6570675,37.4289118 77.665654,37.4304706 77.6750211,37.4320294 C77.6734599,37.4328088 77.6742405,37.4328088 77.6734599,37.4335882 C78.6015823,37.7102794 83.1422785,38.8957647 87.1451477,36.888 L86.984346,36.2995441 C86.9827848,36.3003235 86.9796624,36.3003235 86.9781013,36.3003235 C86.7931013,35.5154559 86.5706329,34.7391618 86.360654,33.9613088 L86.3380169,33.8849265 C86.3380169,33.8849265 86.2544937,33.9145441 86.106962,33.9620882 C86.1038397,33.9620882 86.0999367,33.9620882 86.0968143,33.9628676 C85.921962,34.0080735 85.7494515,34.0618529 85.5777215,34.11875 C85.5457173,34.1296618 85.5144937,34.1390147 85.4824895,34.1491471 C84.8767511,34.3190588 84.0102954,34.5295 83.095443,34.6464118 C82.3281224,34.7243529 81.5522152,34.7274706 80.7692827,34.6604412 C79.498481,34.45 78.525865,33.7703529 78.5719198,32.1632059 L79.2986498,32.1632059 C81.7902954,32.1632059 84.2819409,32.1632059 86.7743671,32.1624265 C86.833692,32.1624265 86.8937975,32.1632059 86.9531224,32.1624265 L86.9523418,32.1632059 C86.9523418,32.1632059 87.487827,32.1561912 87.5104641,32.1515147 C87.5104641,32.1515147 87.5096835,32.0104412 87.5104641,31.9932941 L87.5018776,31.0657941 L87.5018776,31.0657941 Z" id="Fill-8" fill="#FFFFFF"></path>
                <polyline id="Fill-9" fill="#FFFFFF" points="149.620506 23.4883529 144.787869 23.4883529 140.591414 30.0400882 140.591414 15.7285294 136.035886 16.2803529 136.035886 37.7243088 140.591414 37.7243088 140.591414 31.1616618 144.787869 37.7336618 149.620506 37.7336618 145.065759 30.5997059 149.620506 23.4883529"></polyline>
                <path d="M129.957426,32.1865882 C129.942595,32.2816765 129.926983,32.3752059 129.905127,32.4687353 C129.602257,33.8101029 128.6273,34.5357353 127.325274,34.4757206 C125.926456,34.4110294 124.966329,33.5942059 124.831287,32.1990588 C124.734494,31.1795882 124.725127,30.1382941 124.810211,29.1172647 C124.945253,27.5062206 125.952996,26.6254853 127.467342,26.6551029 C128.709262,26.6792647 129.596013,27.3830735 129.912152,28.5771324 C130.197848,29.7774265 129.986308,31.9137941 129.957426,32.1865882 L129.957426,32.1865882 Z M129.765401,23.3956029 C128.182363,22.9723824 126.582932,22.9778382 125.003797,23.3979412 C122.639388,24.0269265 121.054008,25.5202794 120.543502,27.8967059 C120.264831,29.1944265 120.209409,30.5724265 120.282785,31.9028824 C120.450612,34.9449265 122.335738,37.1124706 125.25827,37.7851029 C125.300422,37.7952353 125.343354,37.80225 125.385506,37.8116029 L125.383945,37.8116029 C125.383945,37.8116029 125.391751,37.8131618 125.404241,37.8155 C125.517426,37.8381029 125.630612,37.8591471 125.743797,37.8755147 C125.781266,37.8794118 125.819515,37.8833088 125.856983,37.8856471 C125.858544,37.8864265 125.859325,37.8864265 125.860105,37.8864265 C126.002954,37.9121471 126.172342,37.9324118 126.350316,37.9464412 C126.924051,38.0072353 127.653122,38.0501029 128.260422,37.9791765 C128.263544,37.9776176 128.265105,37.9776176 128.269789,37.9768382 C128.301793,37.9760588 128.332236,37.9760588 128.361899,37.9745 C131.382004,37.8170588 133.673038,35.9160735 134.342004,33.0010735 C134.708882,31.4017206 134.708882,29.7937941 134.355274,28.1928824 C133.797932,25.6808382 132.272658,24.0651176 129.765401,23.3956029 L129.765401,23.3956029 Z" id="Fill-10" fill="#FFFFFF"></path>
            </g>
        </g>
    </g>
</svg>